<svg xmlns="http://www.w3.org/2000/svg" xmlns:xlink="http://www.w3.org/1999/xlink" fill="#000000" width="52" height="52" id="lni_lni-website-money" x="0px" y="0px" viewBox="0 0 64 64" style="enable-background:new 0 0 64 64;" xml:space="preserve"> <g> <path d="M58,7.3H6c-2.6,0-4.8,2.1-4.8,4.8v39.9c0,2.6,2.1,4.8,4.8,4.8h52c2.6,0,4.8-2.1,4.8-4.8V12.1C62.8,9.4,60.6,7.3,58,7.3z M6,10.8h52c0.7,0,1.3,0.6,1.3,1.3v6.6H4.8v-6.6C4.8,11.4,5.3,10.8,6,10.8z M58,53.2H6c-0.7,0-1.3-0.6-1.3-1.3V22.2h54.5v29.7 C59.3,52.6,58.7,53.2,58,53.2z"></path> <path d="M30.6,33.9h5.6c1,0,1.8-0.8,1.8-1.8c0-1-0.8-1.8-1.8-1.8h-1.6v-0.7c0-1-0.8-1.8-1.8-1.8c-1,0-1.8,0.8-1.8,1.8v0.7h-0.5 c-2.5,0-4.5,2-4.5,4.5v0.3c0,2.5,2,4.5,4.5,4.5h2.8c0.6,0,1,0.4,1,1v0.3c0,0.6-0.4,1-1,1h-5.6c-1,0-1.8,0.8-1.8,1.8 s0.8,1.8,1.8,1.8h3.2v0.7c0,1,0.8,1.8,1.8,1.8c1,0,1.8-0.8,1.8-1.8v-0.9c1.9-0.5,3.3-2.3,3.3-4.3v-0.3c0-2.5-2-4.5-4.5-4.5h-2.8 c-0.6,0-1-0.4-1-1v-0.3C29.6,34.3,30,33.9,30.6,33.9z"></path> </g> </svg>