<?xml version="1.0" encoding="UTF-8"?> <svg xmlns="http://www.w3.org/2000/svg" xmlns:xlink="http://www.w3.org/1999/xlink" fill="#000000" width="52" height="52" version="1.1" id="lni_lni-tv-1" x="0px" y="0px" viewBox="0 0 64 64" style="enable-background:new 0 0 64 64;" xml:space="preserve"> <path d="M55.8,14H35.6l6-10.1C42.1,3.1,41.8,2,41,1.5c-0.8-0.5-1.9-0.2-2.4,0.6l-7,11.9h-1.4l-7-8.3c-0.6-0.7-1.7-0.8-2.5-0.2 c-0.7,0.6-0.8,1.7-0.2,2.5l5.1,6H8.2c-2.6,0-4.8,2.1-4.8,4.8v32.9c0,2.6,2.1,4.8,4.8,4.8h2.9V61c0,1,0.8,1.8,1.8,1.8 s1.8-0.8,1.8-1.8v-4.6h34.7V61c0,1,0.8,1.8,1.8,1.8s1.8-0.8,1.8-1.8v-4.6h2.9c2.6,0,4.8-2.1,4.8-4.8V18.8C60.5,16.1,58.4,14,55.8,14 z M57,51.6c0,0.7-0.6,1.3-1.3,1.3H8.2c-0.7,0-1.3-0.6-1.3-1.3V18.8c0-0.7,0.6-1.3,1.3-1.3h47.5c0.7,0,1.3,0.6,1.3,1.3V51.6z"></path> </svg> 