<svg width="60" height="60" viewBox="0 0 60 60" fill="none" xmlns="http://www.w3.org/2000/svg">
	<g clip-path="url(#clip0_1576_26)">
		<path fill-rule="evenodd" clip-rule="evenodd"
			d="M39.21 6H56.51C57.7151 6 58.7 6.98487 58.7 8.19V52.13C58.7 53.3351 57.7151 54.32 56.51 54.32H39.21V6ZM41.51 8.3V52.02H56.4V8.3H41.51Z"
			fill="#6C3BFF" />
		<path fill-rule="evenodd" clip-rule="evenodd"
			d="M24.32 8.3V52.02H39.21V8.3H24.32ZM22.02 8.17C22.02 6.97487 22.9949 6 24.19 6H41.51V54.32H24.19C22.9949 54.32 22.02 53.3451 22.02 52.15V8.17Z"
			fill="#6C3BFF" />
		<path fill-rule="evenodd" clip-rule="evenodd"
			d="M1 12.7C1 12.0649 1.51487 11.55 2.15 11.55H15.51C16.1451 11.55 16.66 12.0649 16.66 12.7C16.66 13.3351 16.1451 13.85 15.51 13.85H2.15C1.51487 13.85 1 13.3351 1 12.7Z"
			fill="#6C3BFF" />
		<path fill-rule="evenodd" clip-rule="evenodd"
			d="M1 19.96C1 19.3249 1.51487 18.81 2.15 18.81H15.51C16.1451 18.81 16.66 19.3249 16.66 19.96C16.66 20.5951 16.1451 21.11 15.51 21.11H2.15C1.51487 21.11 1 20.5951 1 19.96Z"
			fill="#6C3BFF" />
		<path fill-rule="evenodd" clip-rule="evenodd"
			d="M1 27.22C1 26.5849 1.51487 26.07 2.15 26.07H15.51C16.1451 26.07 16.66 26.5849 16.66 27.22C16.66 27.8551 16.1451 28.37 15.51 28.37H2.15C1.51487 28.37 1 27.8551 1 27.22Z"
			fill="#6C3BFF" />
		<path fill-rule="evenodd" clip-rule="evenodd"
			d="M1 34.48C1 33.8449 1.51487 33.33 2.15 33.33H15.51C16.1451 33.33 16.66 33.8449 16.66 34.48C16.66 35.1151 16.1451 35.63 15.51 35.63H2.15C1.51487 35.63 1 35.1151 1 34.48Z"
			fill="#6C3BFF" />
		<path fill-rule="evenodd" clip-rule="evenodd"
			d="M1 41.74C1 41.1049 1.51487 40.59 2.15 40.59H15.51C16.1451 40.59 16.66 41.1049 16.66 41.74C16.66 42.3752 16.1451 42.89 15.51 42.89H2.15C1.51487 42.89 1 42.3752 1 41.74Z"
			fill="#6C3BFF" />
		<path fill-rule="evenodd" clip-rule="evenodd"
			d="M1 49C1 48.3648 1.51487 47.85 2.15 47.85H15.51C16.1451 47.85 16.66 48.3648 16.66 49C16.66 49.6351 16.1451 50.15 15.51 50.15H2.15C1.51487 50.15 1 49.6351 1 49Z"
			fill="#6C3BFF" />
		<path fill-rule="evenodd" clip-rule="evenodd"
			d="M28.53 27.48C28.53 27.2038 28.7539 26.98 29.03 26.98H35.28C35.5562 26.98 35.78 27.2038 35.78 27.48C35.78 27.7561 35.5562 27.98 35.28 27.98H29.03C28.7539 27.98 28.53 27.7561 28.53 27.48Z"
			fill="#6C3BFF" />
		<path fill-rule="evenodd" clip-rule="evenodd"
			d="M28.53 34.08C28.53 33.8039 28.7539 33.58 29.03 33.58H35.28C35.5562 33.58 35.78 33.8039 35.78 34.08C35.78 34.3562 35.5562 34.58 35.28 34.58H29.03C28.7539 34.58 28.53 34.3562 28.53 34.08Z"
			fill="#6C3BFF" />
		<path fill-rule="evenodd" clip-rule="evenodd"
			d="M28.53 40.67C28.53 40.3938 28.7539 40.17 29.03 40.17H35.28C35.5562 40.17 35.78 40.3938 35.78 40.67C35.78 40.9461 35.5562 41.17 35.28 41.17H29.03C28.7539 41.17 28.53 40.9461 28.53 40.67Z"
			fill="#6C3BFF" />
		<path fill-rule="evenodd" clip-rule="evenodd"
			d="M28.53 47.27C28.53 46.9939 28.7539 46.77 29.03 46.77H35.28C35.5562 46.77 35.78 46.9939 35.78 47.27C35.78 47.5462 35.5562 47.77 35.28 47.77H29.03C28.7539 47.77 28.53 47.5462 28.53 47.27Z"
			fill="#6C3BFF" />
		<path fill-rule="evenodd" clip-rule="evenodd"
			d="M45.32 27.48C45.32 27.2038 45.5439 26.98 45.82 26.98H52.08C52.3562 26.98 52.58 27.2038 52.58 27.48C52.58 27.7561 52.3562 27.98 52.08 27.98H45.82C45.5439 27.98 45.32 27.7561 45.32 27.48Z"
			fill="#6C3BFF" />
		<path fill-rule="evenodd" clip-rule="evenodd"
			d="M45.32 34.08C45.32 33.8039 45.5439 33.58 45.82 33.58H52.08C52.3562 33.58 52.58 33.8039 52.58 34.08C52.58 34.3562 52.3562 34.58 52.08 34.58H45.82C45.5439 34.58 45.32 34.3562 45.32 34.08Z"
			fill="#6C3BFF" />
		<path fill-rule="evenodd" clip-rule="evenodd"
			d="M45.32 40.67C45.32 40.3938 45.5439 40.17 45.82 40.17H52.08C52.3562 40.17 52.58 40.3938 52.58 40.67C52.58 40.9461 52.3562 41.17 52.08 41.17H45.82C45.5439 41.17 45.32 40.9461 45.32 40.67Z"
			fill="#6C3BFF" />
		<path fill-rule="evenodd" clip-rule="evenodd"
			d="M45.32 47.27C45.32 46.9939 45.5439 46.77 45.82 46.77H52.08C52.3562 46.77 52.58 46.9939 52.58 47.27C52.58 47.5462 52.3562 47.77 52.08 47.77H45.82C45.5439 47.77 45.32 47.5462 45.32 47.27Z"
			fill="#6C3BFF" />
		<path
			d="M51.54 16.17C51.78 16.17 51.97 15.98 51.97 15.74V15.38C51.97 14.18 51.01 13.19 49.81 13.15V12.58C49.81 12.34 49.62 12.15 49.38 12.15C49.14 12.15 48.95 12.34 48.95 12.58V13.15C47.72 13.19 46.75 14.22 46.79 15.45C46.82 16.34 47.37 17.13 48.2 17.45L50.26 18.27C50.96 18.55 51.31 19.35 51.02 20.05C50.81 20.57 50.31 20.91 49.75 20.91H49.04C48.28 20.91 47.67 20.29 47.67 19.54V19.18C47.67 18.94 47.48 18.75 47.24 18.75C47 18.75 46.81 18.94 46.81 19.18V19.54C46.81 20.74 47.77 21.73 48.97 21.77V22.34C48.97 22.58 49.16 22.77 49.4 22.77C49.64 22.77 49.83 22.58 49.83 22.34V21.77C51.06 21.73 52.03 20.7 51.99 19.47C51.96 18.58 51.41 17.79 50.58 17.47L48.52 16.65C47.82 16.37 47.47 15.57 47.76 14.87C47.97 14.35 48.47 14.01 49.03 14.01H49.74C50.5 14.01 51.11 14.63 51.11 15.38V15.74C51.11 15.98 51.3 16.17 51.54 16.17Z"
			fill="#6C3BFF" />
		<path
			d="M33.88 16.17C34.12 16.17 34.31 15.98 34.31 15.74V15.38C34.31 14.18 33.35 13.19 32.15 13.15V12.58C32.15 12.34 31.96 12.15 31.72 12.15C31.48 12.15 31.29 12.34 31.29 12.58V13.15C30.06 13.19 29.09 14.22 29.13 15.45C29.16 16.34 29.71 17.13 30.54 17.45L32.6 18.27C33.3 18.55 33.65 19.35 33.36 20.05C33.15 20.57 32.65 20.91 32.09 20.91H31.38C30.62 20.91 30.01 20.29 30.01 19.54V19.18C30.01 18.94 29.82 18.75 29.58 18.75C29.34 18.75 29.15 18.94 29.15 19.18V19.54C29.15 20.74 30.11 21.73 31.31 21.77V22.34C31.31 22.58 31.5 22.77 31.74 22.77C31.98 22.77 32.17 22.58 32.17 22.34V21.77C33.4 21.73 34.37 20.7 34.33 19.47C34.3 18.58 33.75 17.79 32.92 17.47L30.86 16.65C30.16 16.37 29.81 15.57 30.1 14.87C30.31 14.35 30.81 14.01 31.37 14.01H32.08C32.84 14.01 33.45 14.63 33.45 15.38V15.74C33.45 15.98 33.64 16.17 33.88 16.17Z"
			fill="#6C3BFF" />
	</g>
	<defs>
		<clipPath id="clip0_1576_26">
			<rect width="57.69" height="48.32" fill="white" transform="translate(1 6)" />
		</clipPath>
	</defs>
</svg>
