<?xml version="1.0" encoding="UTF-8"?> <svg xmlns="http://www.w3.org/2000/svg" xmlns:xlink="http://www.w3.org/1999/xlink" fill="#000000" width="52" height="52" version="1.1" id="lni_lni-elegant-table-1" x="0px" y="0px" viewBox="0 0 64 64" style="enable-background:new 0 0 64 64;" xml:space="preserve"> <g> <path d="M23.5,24.7h17c0.5,0,1-0.2,1.4-0.7c0.3-0.4,0.5-1,0.3-1.5c-1-4.2-4.3-7.1-8.5-7.8V3c0-1-0.8-1.8-1.8-1.8 c-1,0-1.8,0.8-1.8,1.8v11.8c-4.2,0.6-7.5,3.6-8.5,7.8c-0.1,0.5,0,1.1,0.3,1.5C22.5,24.4,23,24.7,23.5,24.7z M32,18.1 c2.6,0,4.7,1.1,5.9,3.1H26.1C27.3,19.3,29.4,18.1,32,18.1z"></path> <path d="M58.5,32.1H5.5c-1,0-1.8,0.8-1.8,1.8s0.8,1.8,1.8,1.8h4.6V61c0,1,0.8,1.8,1.8,1.8s1.8-0.8,1.8-1.8V35.6h4.1v15.3 c0,1,0.8,1.8,1.8,1.8s1.8-0.8,1.8-1.8V35.6h21.7v15.3c0,1,0.8,1.8,1.8,1.8s1.8-0.8,1.8-1.8V35.6h4.1V61c0,1,0.8,1.8,1.8,1.8 s1.8-0.8,1.8-1.8V35.6h4.6c1,0,1.8-0.8,1.8-1.8S59.4,32.1,58.5,32.1z"></path> </g> </svg> 