<?xml version="1.0" encoding="UTF-8"?> <svg xmlns="http://www.w3.org/2000/svg" xmlns:xlink="http://www.w3.org/1999/xlink" fill="#000000" width="52" height="52" version="1.1" id="lni_lni-bath-tub-1" x="0px" y="0px" viewBox="0 0 64 64" style="enable-background:new 0 0 64 64;" xml:space="preserve"> <path d="M61,29.3h-4.2H13V10.1c0-1.3,1-2.3,2.3-2.3H23v2.9c-2.1,0.3-3.8,2.1-3.8,4.3v4.4c0,1,0.8,1.8,1.8,1.8h7.1 c1,0,1.8-0.8,1.8-1.8V15c0-2-1.4-3.7-3.3-4.2V6c0-1-0.8-1.8-1.8-1.8h-9.5c-3.2,0-5.8,2.6-5.8,5.8v19.2H7.9H7.2H3 c-1,0-1.8,0.8-1.8,1.8c0,1,0.8,1.8,1.8,1.8h2.4v8c0,5.9,4.4,10.8,10.1,11.6l-2.2,4.9c-0.4,0.9,0,1.9,0.9,2.3 c0.2,0.1,0.5,0.2,0.7,0.2c0.7,0,1.3-0.4,1.6-1l2.8-6.2h27.5c0.2,0,0.4,0,0.7,0l2.8,6.2c0.3,0.7,0.9,1,1.6,1c0.2,0,0.5,0,0.7-0.2 c0.9-0.4,1.3-1.4,0.9-2.3L51,51.8c4.4-1.7,7.6-6,7.6-11v-8H61c1,0,1.8-0.8,1.8-1.8C62.8,30.1,62,29.3,61,29.3z M26.3,17.7h-3.6V15 c0-0.5,0.4-0.9,0.9-0.9h1.8c0.5,0,0.9,0.4,0.9,0.9V17.7z M55.1,40.8c0,4.5-3.7,8.3-8.3,8.3H17.2c-4.5,0-8.3-3.7-8.3-8.3v-8h46.2 V40.8z"></path> </svg> 