<svg
	xmlns="http://www.w3.org/2000/svg"
	width="47"
	height="47"
	fill="none"
	viewBox="0 0 47 47"
>
	<path
		fill="#6C3BFF"
		fillRule="evenodd"
		d="M.86 2.981A2.789 2.789 0 013.647.193h40.546a2.789 2.789 0 012.789 2.788v40.546a2.789 2.789 0 01-2.79 2.789H3.649a2.789 2.789 0 01-2.789-2.789V2.981zm2.788-.788a.789.789 0 00-.789.788v18.957h19.746V2.193H3.648zm18.957 21.745H2.859v19.59c0 .435.353.788.789.788h18.957V23.938zm2 0h20.378v19.59a.789.789 0 01-.79.788H24.606V23.938zm20.378-2H24.605V2.193h19.589c.435 0 .789.353.789.788v18.957z"
		clipRule="evenodd"
	></path>
</svg>
