<svg
	xmlns="http://www.w3.org/2000/svg"
	width="60"
	height="25"
	fill="none"
	viewBox="0 0 60 25"
>
	<path
		fill="#6C3BFF"
		d="M57.3 0H2.7C1.2 0 0 1.2 0 2.7v18.7c0 1.5 1.2 2.8 2.8 2.8h54.5c1.5 0 2.8-1.2 2.8-2.8V2.7C60 1.2 58.8 0 57.3 0zM17 22.7H2.7c-.7 0-1.3-.6-1.3-1.3V2.7c0-.7.6-1.3 1.3-1.3H17v21.3zm41.5-1.2c0 .7-.6 1.3-1.3 1.3H18.5V1.5h38.7c.7 0 1.3.6 1.3 1.3v18.7z"
	></path>
	<path
		fill="#6C3BFF"
		d="M4.4 12.1h8.3c.4 0 .8-.3.8-.8s-.3-.8-.8-.8H4.4c-.4 0-.8.3-.8.8s.4.8.8.8zM46.4 10.9H22.3c-.4 0-.8.3-.8.8s.3.8.8.8h24.1c.4 0 .8-.3.8-.8s-.4-.8-.8-.8zM50.1 7.4c-.3.3-.3.8 0 1.1l3.2 3.2-3.2 3.2c-.3.3-.3.8 0 1.1.3.3.8.3 1.1 0l4.2-4.2-4.2-4.2c-.3-.5-.8-.5-1.1-.2z"
	></path>
</svg>
