<svg
	xmlns="http://www.w3.org/2000/svg"
	width="60"
	height="60"
	fill="none"
	viewBox="0 0 60 60"
>
	<path
		fill="#6C3BFF"
		d="M24.8 16.7c1.3 0 2.4-1.1 2.4-2.4 0-1.3-1.1-2.4-2.4-2.4-1.3 0-2.4 1.1-2.4 2.4 0 1.3 1.1 2.4 2.4 2.4zm0-3.2c.4 0 .8.4.8.8s-.4.8-.8.8-.8-.4-.8-.8.3-.8.8-.8z"
	></path>
	<path
		fill="#6C3BFF"
		d="M45 7.1H12.5c-2.6 0-4.7 2.1-4.7 4.7v37.5c0 2.6 2.1 4.7 4.7 4.7H45c2.6 0 4.7-2.1 4.7-4.7V11.8c0-2.6-2.1-4.7-4.7-4.7zM12.5 8.6H45c1.8 0 3.2 1.4 3.2 3.2V25h-8.5l-7-8c-.3-.4-.9-.4-1.2 0l-3.8 4.3-2.9-3.1c-.3-.4-.9-.3-1.2 0L17.7 25H9.3V11.8c0-1.8 1.4-3.2 3.2-3.2zm11.8 16.3c0 .1 0 .1 0 0L20 25l4.2-4.9 2.3 2.4-2.2 2.4zm13.2.1h-11l5.5-6.2 5.5 6.2zM45 52.4H12.5c-1.8 0-3.2-1.4-3.2-3.2V26.5h39v22.7c-.1 1.8-1.5 3.2-3.3 3.2z"
	></path>
	<path
		fill="#6C3BFF"
		d="M41 33.2H16.4c-.4 0-.8.3-.8.8s.3.8.8.8H41c.4 0 .8-.3.8-.8s-.3-.8-.8-.8zM41 38.9H16.4c-.4 0-.8.3-.8.8s.3.8.8.8H41c.4 0 .8-.3.8-.8s-.3-.8-.8-.8zM22.1 44.9c-.6 0-1.1.5-1.1 1.1 0 .6.5 1.1 1.1 1.1.6 0 1.1-.5 1.1-1.1 0-.6-.5-1.1-1.1-1.1zM26.5 44.9c-.6 0-1.1.5-1.1 1.1 0 .6.5 1.1 1.1 1.1.6 0 1.1-.5 1.1-1.1 0-.6-.5-1.1-1.1-1.1zM31 47.1a1.1 1.1 0 100-2.2 1.1 1.1 0 000 2.2zM35.4 47.1a1.1 1.1 0 100-2.2 1.1 1.1 0 000 2.2zM54.2 24.7c-.3-.3-.8-.3-1.1 0-.3.3-.3.8 0 1.1l4.7 4.7-4.7 4.7c-.3.3-.3.8 0 1.1.1.1.3.2.5.2s.4-.1.5-.2l5.8-5.8-5.7-5.8zM4.5 27.1c-.3-.3-.8-.3-1.1 0L0 30.5l3.4 3.4c.1.1.3.2.5.2s.4-.1.5-.2c.3-.3.3-.8 0-1.1L2 30.4 4.4 28c.4-.2.4-.7.1-.9z"
	></path>
</svg>
