<svg width="374" height="242" viewBox="0 0 374 242" fill="none" xmlns="http://www.w3.org/2000/svg">
<g clip-path="url(#clip0_1250_2155)">
<rect x="157.454" y="206.869" width="7.63077" height="7.63077" rx="3.81538" fill="#DEE2ED"/>
<rect x="170.808" y="206.869" width="7.63077" height="7.63077" rx="3.81538" fill="#9EA8C7"/>
<rect x="184.162" y="206.869" width="7.63077" height="7.63077" rx="3.81538" fill="#DEE2ED"/>
<rect x="197.515" y="206.869" width="7.63077" height="7.63077" rx="3.81538" fill="#DEE2ED"/>
<rect x="210.869" y="206.869" width="7.63077" height="7.63077" rx="3.81538" fill="#DEE2ED"/>
<rect x="37.2693" y="28.5" width="89.6615" height="63.9077" rx="2.86154" fill="#F6F7FA"/>
<rect x="46.8077" y="59.0231" width="56.2769" height="3.81538" rx="1.90769" fill="#D8DCE6"/>
<rect x="46.8077" y="68.5615" width="73.4461" height="2.86154" rx="1.43077" fill="#E2E5F0"/>
<rect x="46.8077" y="75.2385" width="55.3231" height="2.86154" rx="1.43077" fill="#E2E5F0"/>
<g clip-path="url(#clip1_1250_2155)">
<path d="M58.5727 50.9152L54.7876 43.9758L57.7778 38.9921L64.1368 50.9152H58.5727ZM52.2137 42.1716L56.9829 50.9152H47.4445L52.2137 42.1716ZM50.2265 40.5819C49.129 40.5819 48.2393 39.6922 48.2393 38.5947C48.2393 37.4972 49.129 36.6075 50.2265 36.6075C51.324 36.6075 52.2137 37.4972 52.2137 38.5947C52.2137 39.6922 51.324 40.5819 50.2265 40.5819Z" fill="#E2E5F0"/>
</g>
<rect x="249.977" y="28.5" width="89.6615" height="63.9077" rx="2.86154" fill="#F6F7FA"/>
<rect x="259.515" y="59.0231" width="56.2769" height="3.81538" rx="1.90769" fill="#D8DCE6"/>
<rect x="259.515" y="68.5615" width="73.4461" height="2.86154" rx="1.43077" fill="#E2E5F0"/>
<rect x="259.515" y="75.2385" width="55.3231" height="2.86154" rx="1.43077" fill="#E2E5F0"/>
<path d="M271.28 50.9152L267.495 43.9758L270.485 38.9921L276.844 50.9152H271.28ZM264.921 42.1716L269.691 50.9152H260.152L264.921 42.1716ZM262.934 40.5819C261.837 40.5819 260.947 39.6922 260.947 38.5947C260.947 37.4972 261.837 36.6075 262.934 36.6075C264.032 36.6075 264.921 37.4972 264.921 38.5947C264.921 39.6922 264.032 40.5819 262.934 40.5819Z" fill="#E2E5F0"/>
<rect x="144.1" y="123.885" width="89.6615" height="63.9077" rx="2.86154" fill="#F6F7FA"/>
<rect x="153.638" y="154.408" width="56.2769" height="3.81538" rx="1.90769" fill="#D8DCE6"/>
<rect x="153.638" y="163.946" width="73.4461" height="2.86154" rx="1.43077" fill="#E2E5F0"/>
<rect x="153.638" y="170.623" width="55.3231" height="2.86154" rx="1.43077" fill="#E2E5F0"/>
<path d="M165.403 146.3L161.618 139.36L164.608 134.377L170.967 146.3H165.403ZM159.044 137.556L163.814 146.3H154.275L159.044 137.556ZM157.057 135.966C155.96 135.966 155.07 135.077 155.07 133.979C155.07 132.882 155.96 131.992 157.057 131.992C158.155 131.992 159.044 132.882 159.044 133.979C159.044 135.077 158.155 135.966 157.057 135.966Z" fill="#E2E5F0"/>
<rect x="53.4846" y="123.885" width="56.2769" height="2.86154" rx="1.43077" fill="#E2E5F0"/>
<rect x="266.192" y="123.885" width="56.2769" height="2.86154" rx="1.43077" fill="#E2E5F0"/>
<rect x="160.315" y="92.4077" width="56.2769" height="2.86154" rx="1.43077" fill="#E2E5F0"/>
<rect x="354.9" y="100.038" width="19.0769" height="19.0769" rx="9.53846" fill="#EBEDF4"/>
<g clip-path="url(#clip2_1250_2155)">
<path d="M362.906 106.511L365.971 109.577L362.906 112.643" stroke="#9EA8C7" stroke-width="1.36264" stroke-linecap="round" stroke-linejoin="round"/>
</g>
<rect x="29.6385" y="108.623" width="315.723" height="2.86154" rx="1.43077" fill="#EBEDF4"/>
<rect x="75.9" y="103.377" width="12.4" height="12.4" rx="6.2" fill="white"/>
<rect x="75.9" y="103.377" width="12.4" height="12.4" rx="6.2" stroke="#E2E5F0" stroke-width="0.953846"/>
<rect x="80.6693" y="108.146" width="2.86154" height="2.86154" rx="1.43077" fill="white"/>
<rect x="80.6693" y="108.146" width="2.86154" height="2.86154" rx="1.43077" stroke="#E2E5F0" stroke-width="2.86154"/>
<rect x="288.608" y="103.377" width="12.4" height="12.4" rx="6.2" fill="white"/>
<rect x="288.608" y="103.377" width="12.4" height="12.4" rx="6.2" stroke="#E2E5F0" stroke-width="0.953846"/>
<rect x="293.377" y="108.146" width="2.86154" height="2.86154" rx="1.43077" fill="white"/>
<rect x="293.377" y="108.146" width="2.86154" height="2.86154" rx="1.43077" stroke="#E2E5F0" stroke-width="2.86154"/>
<rect x="182.731" y="103.377" width="12.4" height="12.4" rx="6.2" fill="white"/>
<rect x="182.731" y="103.377" width="12.4" height="12.4" rx="6.2" stroke="#E2E5F0" stroke-width="0.953846"/>
<rect x="187.5" y="108.146" width="2.86154" height="2.86154" rx="1.43077" fill="white"/>
<rect x="187.5" y="108.146" width="2.86154" height="2.86154" rx="1.43077" stroke="#E2E5F0" stroke-width="2.86154"/>
<rect x="20.1" y="119.115" width="19.0769" height="19.0769" rx="9.53846" transform="rotate(-180 20.1 119.115)" fill="#EBEDF4"/>
<path d="M12.0945 112.643L9.02855 109.577L12.0945 106.511" stroke="#9EA8C7" stroke-width="1.36264" stroke-linecap="round" stroke-linejoin="round"/>
</g>
<defs>
<clipPath id="clip0_1250_2155">
<rect width="374" height="242" fill="white"/>
</clipPath>
<clipPath id="clip1_1250_2155">
<rect width="19.0769" height="19.0769" fill="white" transform="translate(45.8539 34.2231)"/>
</clipPath>
<clipPath id="clip2_1250_2155">
<rect width="12.2637" height="12.2637" fill="white" transform="translate(358.307 103.445)"/>
</clipPath>
</defs>
</svg>
