<svg width="374" height="242" viewBox="0 0 374 242" fill="none" xmlns="http://www.w3.org/2000/svg">
<g clip-path="url(#clip0_1250_2048)">
<rect x="353" y="81.3773" width="18.8679" height="18.8679" rx="9.43396" fill="#EBEDF4"/>
<g clip-path="url(#clip1_1250_2048)">
<path d="M360.918 87.779L363.95 90.8113L360.918 93.8437" stroke="#9EA8C7" stroke-width="1.34771" stroke-linecap="round" stroke-linejoin="round"/>
</g>
<rect x="158.66" y="163.453" width="7.54717" height="7.54717" rx="3.77358" fill="#DEE2ED"/>
<rect x="171.868" y="163.453" width="7.54717" height="7.54717" rx="3.77358" fill="#9EA8C7"/>
<rect x="185.075" y="163.453" width="7.54717" height="7.54717" rx="3.77358" fill="#DEE2ED"/>
<rect x="198.283" y="163.453" width="7.54717" height="7.54717" rx="3.77358" fill="#DEE2ED"/>
<rect x="211.49" y="163.453" width="7.54717" height="7.54717" rx="3.77358" fill="#DEE2ED"/>
<rect x="31.3018" y="88.9245" width="312.264" height="2.83019" rx="1.41509" fill="#EBEDF4"/>
<rect x="184.368" y="81.6132" width="16.5094" height="16.5094" rx="8.25472" fill="white"/>
<rect x="184.368" y="81.6132" width="16.5094" height="16.5094" rx="8.25472" stroke="#CFD3DC" stroke-width="0.471698"/>
<rect x="189.321" y="86.566" width="6.60377" height="6.60377" rx="3.30189" fill="white"/>
<rect x="189.321" y="86.566" width="6.60377" height="6.60377" rx="3.30189" stroke="#CFD3DC" stroke-width="0.943396"/>
<rect x="173.755" y="71" width="37.7359" height="3.77358" rx="1.88679" fill="#DEE2ED"/>
<rect x="168.094" y="105.906" width="48.1132" height="3.77358" rx="1.88679" fill="#DEE2ED"/>
<rect x="155.83" y="115.34" width="72.6415" height="2.83019" rx="1.41509" fill="#EBEDF4"/>
<rect x="161.49" y="121.943" width="64.1509" height="2.83019" rx="1.41509" fill="#EBEDF4"/>
<rect x="287.198" y="81.6132" width="16.5094" height="16.5094" rx="8.25472" fill="white"/>
<rect x="287.198" y="81.6132" width="16.5094" height="16.5094" rx="8.25472" stroke="#CFD3DC" stroke-width="0.471698"/>
<rect x="292.151" y="86.566" width="6.60377" height="6.60377" rx="3.30189" fill="white"/>
<rect x="292.151" y="86.566" width="6.60377" height="6.60377" rx="3.30189" stroke="#CFD3DC" stroke-width="0.943396"/>
<rect x="273.755" y="71" width="42.4528" height="3.77358" rx="1.88679" fill="#DEE2ED"/>
<rect x="267.151" y="105.906" width="55.6604" height="3.77358" rx="1.88679" fill="#DEE2ED"/>
<rect x="258.66" y="115.34" width="72.6415" height="2.83019" rx="1.41509" fill="#EBEDF4"/>
<rect x="268.094" y="121.943" width="54.717" height="2.83019" rx="1.41509" fill="#EBEDF4"/>
<rect x="21.8678" y="100.245" width="18.8679" height="18.8679" rx="9.43396" transform="rotate(-180 21.8678 100.245)" fill="#EBEDF4"/>
<path d="M13.9501 93.8437L10.9177 90.8113L13.9501 87.779" stroke="#9EA8C7" stroke-width="1.34771" stroke-linecap="round" stroke-linejoin="round"/>
<rect x="78.7074" y="81.6132" width="16.5094" height="16.5094" rx="8.25472" fill="white"/>
<rect x="78.7074" y="81.6132" width="16.5094" height="16.5094" rx="8.25472" stroke="#CFD3DC" stroke-width="0.471698"/>
<rect x="83.6602" y="86.566" width="6.60377" height="6.60377" rx="3.30189" fill="white"/>
<rect x="83.6602" y="86.566" width="6.60377" height="6.60377" rx="3.30189" stroke="#CFD3DC" stroke-width="0.943396"/>
<rect x="65.264" y="71" width="42.4528" height="3.77358" rx="1.88679" fill="#DEE2ED"/>
<rect x="58.6603" y="105.906" width="55.6604" height="3.77358" rx="1.88679" fill="#DEE2ED"/>
<rect x="50.1697" y="115.34" width="72.6415" height="2.83019" rx="1.41509" fill="#EBEDF4"/>
<rect x="59.6036" y="121.943" width="54.717" height="2.83019" rx="1.41509" fill="#EBEDF4"/>
</g>
<defs>
<clipPath id="clip0_1250_2048">
<rect width="374" height="242" fill="white"/>
</clipPath>
<clipPath id="clip1_1250_2048">
<rect width="12.1294" height="12.1294" fill="white" transform="translate(356.369 84.7466)"/>
</clipPath>
</defs>
</svg>
