<svg width="374" height="242" viewBox="0 0 374 242" fill="none" xmlns="http://www.w3.org/2000/svg">
<g clip-path="url(#clip0_1249_1648)">
<g clip-path="url(#clip1_1249_1648)">
<rect x="136.693" y="56" width="99.635" height="99.635" rx="3.53295" fill="#F1F3F9"/>
<path d="M196.198 126.337L184.982 105.774L193.843 91.0072L212.685 126.337H196.198ZM177.355 100.428L191.487 126.337H163.224L177.355 100.428ZM171.467 95.7178C168.215 95.7178 165.579 93.0815 165.579 89.8295C165.579 86.5775 168.215 83.9413 171.467 83.9413C174.719 83.9413 177.355 86.5775 177.355 89.8295C177.355 93.0815 174.719 95.7178 171.467 95.7178Z" fill="white"/>
<rect width="31.3869" height="14.7956" transform="translate(136.693 63.5912)" fill="#CFD3DC"/>
<path d="M146.909 69.4008C146.873 69.0818 146.725 68.8347 146.464 68.6595C146.204 68.482 145.876 68.3933 145.48 68.3933C145.197 68.3933 144.952 68.4382 144.746 68.5281C144.539 68.6157 144.378 68.737 144.264 68.892C144.151 69.0447 144.095 69.2188 144.095 69.4143C144.095 69.5783 144.134 69.7198 144.21 69.8389C144.289 69.9579 144.391 70.0579 144.517 70.1388C144.645 70.2174 144.782 70.2837 144.928 70.3376C145.074 70.3893 145.214 70.4319 145.349 70.4656L146.023 70.6409C146.243 70.6948 146.469 70.7678 146.7 70.8599C146.931 70.952 147.146 71.0733 147.344 71.2238C147.541 71.3743 147.701 71.5608 147.822 71.7832C147.946 72.0056 148.008 72.2718 148.008 72.5818C148.008 72.9727 147.906 73.3198 147.704 73.623C147.504 73.9263 147.213 74.1656 146.832 74.3408C146.452 74.516 145.992 74.6036 145.453 74.6036C144.937 74.6036 144.49 74.5216 144.112 74.3576C143.735 74.1936 143.439 73.9611 143.226 73.6601C143.013 73.3568 142.895 72.9974 142.872 72.5818H143.917C143.937 72.8312 144.018 73.039 144.159 73.2052C144.303 73.3692 144.486 73.4916 144.709 73.5725C144.933 73.6511 145.179 73.6904 145.447 73.6904C145.741 73.6904 146.003 73.6444 146.232 73.5523C146.463 73.4579 146.645 73.3276 146.778 73.1614C146.91 72.9929 146.976 72.7963 146.976 72.5717C146.976 72.3673 146.918 72.1999 146.801 72.0696C146.687 71.9393 146.53 71.8315 146.333 71.7461C146.137 71.6607 145.916 71.5855 145.669 71.5203L144.854 71.2979C144.301 71.1474 143.863 70.9262 143.539 70.6341C143.218 70.3421 143.057 69.9557 143.057 69.4749C143.057 69.0773 143.165 68.7302 143.381 68.4337C143.597 68.1372 143.889 67.9069 144.257 67.7429C144.626 67.5767 145.041 67.4936 145.504 67.4936C145.971 67.4936 146.383 67.5756 146.741 67.7396C147.1 67.9035 147.383 68.1293 147.59 68.4169C147.796 68.7022 147.904 69.0301 147.913 69.4008H146.909ZM150.677 74.6036C150.349 74.6036 150.053 74.543 149.788 74.4217C149.523 74.2981 149.312 74.1195 149.157 73.8859C149.005 73.6522 148.928 73.3658 148.928 73.0266C148.928 72.7346 148.984 72.4942 149.097 72.3055C149.209 72.1168 149.361 71.9674 149.552 71.8573C149.743 71.7472 149.956 71.6641 150.192 71.608C150.428 71.5518 150.668 71.5091 150.913 71.4799C151.223 71.444 151.475 71.4148 151.668 71.3923C151.861 71.3676 152.001 71.3283 152.089 71.2744C152.177 71.2204 152.221 71.1328 152.221 71.0115V70.9879C152.221 70.6936 152.137 70.4656 151.971 70.3039C151.807 70.1421 151.562 70.0613 151.237 70.0613C150.897 70.0613 150.63 70.1365 150.435 70.287C150.241 70.4353 150.108 70.6004 150.034 70.7824L149.087 70.5667C149.199 70.2522 149.363 69.9984 149.579 69.8052C149.797 69.6097 150.047 69.4682 150.33 69.3806C150.613 69.2907 150.911 69.2458 151.223 69.2458C151.43 69.2458 151.649 69.2705 151.88 69.3199C152.114 69.3671 152.332 69.4547 152.534 69.5828C152.738 69.7108 152.906 69.8939 153.036 70.132C153.166 70.3679 153.231 70.6746 153.231 71.052V74.489H152.247V73.7814H152.207C152.142 73.9117 152.044 74.0398 151.914 74.1656C151.784 74.2914 151.616 74.3958 151.412 74.4789C151.207 74.5621 150.962 74.6036 150.677 74.6036ZM150.896 73.7949C151.175 73.7949 151.413 73.7398 151.611 73.6298C151.811 73.5197 151.962 73.3759 152.065 73.1985C152.171 73.0187 152.224 72.8267 152.224 72.6222V71.955C152.188 71.991 152.118 72.0247 152.015 72.0561C151.914 72.0853 151.798 72.1112 151.668 72.1336C151.538 72.1538 151.411 72.1729 151.287 72.1909C151.164 72.2066 151.06 72.2201 150.977 72.2314C150.782 72.2561 150.603 72.2976 150.441 72.356C150.282 72.4144 150.154 72.4987 150.057 72.6088C149.963 72.7166 149.916 72.8604 149.916 73.0401C149.916 73.2894 150.008 73.4781 150.192 73.6062C150.376 73.732 150.611 73.7949 150.896 73.7949ZM155.581 67.5879V74.489H154.573V67.5879H155.581ZM159.167 74.5935C158.657 74.5935 158.218 74.4846 157.85 74.2666C157.483 74.0465 157.2 73.7376 157 73.34C156.803 72.9401 156.704 72.4717 156.704 71.9348C156.704 71.4047 156.803 70.9374 157 70.533C157.2 70.1287 157.479 69.813 157.836 69.5861C158.196 69.3593 158.616 69.2458 159.096 69.2458C159.388 69.2458 159.671 69.2941 159.946 69.3907C160.22 69.4873 160.466 69.6389 160.683 69.8456C160.901 70.0523 161.073 70.3207 161.199 70.651C161.325 70.9789 161.388 71.3777 161.388 71.8472V72.2044H157.273V71.4496H160.4C160.4 71.1845 160.347 70.9497 160.239 70.7453C160.131 70.5386 159.979 70.3758 159.784 70.2567C159.591 70.1376 159.364 70.0781 159.103 70.0781C158.82 70.0781 158.573 70.1478 158.362 70.287C158.153 70.4241 157.991 70.6038 157.877 70.8262C157.764 71.0463 157.708 71.2856 157.708 71.5439V72.1336C157.708 72.4796 157.769 72.7739 157.89 73.0165C158.014 73.2591 158.185 73.4444 158.406 73.5725C158.626 73.6983 158.883 73.7612 159.177 73.7612C159.368 73.7612 159.542 73.7342 159.7 73.6803C159.857 73.6242 159.993 73.541 160.107 73.431C160.222 73.3209 160.309 73.185 160.37 73.0232L161.324 73.1951C161.247 73.4759 161.11 73.7219 160.913 73.933C160.717 74.142 160.471 74.3048 160.175 74.4217C159.88 74.5362 159.545 74.5935 159.167 74.5935Z" fill="white"/>
</g>
<g clip-path="url(#clip2_1249_1648)">
<rect x="247.715" y="56" width="99.635" height="99.635" rx="3.53295" fill="#F1F3F9"/>
<path d="M307.22 126.337L296.004 105.774L304.864 91.0072L323.707 126.337H307.22ZM288.377 100.428L302.509 126.337H274.246L288.377 100.428ZM282.489 95.7178C279.237 95.7178 276.601 93.0815 276.601 89.8295C276.601 86.5775 279.237 83.9413 282.489 83.9413C285.741 83.9413 288.377 86.5775 288.377 89.8295C288.377 93.0815 285.741 95.7178 282.489 95.7178Z" fill="white"/>
<rect width="31.3869" height="14.7956" transform="translate(247.715 63.5912)" fill="#CFD3DC"/>
<path d="M257.931 69.4008C257.895 69.0818 257.747 68.8347 257.486 68.6595C257.226 68.482 256.898 68.3933 256.502 68.3933C256.219 68.3933 255.974 68.4382 255.768 68.5281C255.561 68.6157 255.4 68.737 255.286 68.892C255.173 69.0447 255.117 69.2188 255.117 69.4143C255.117 69.5783 255.155 69.7198 255.232 69.8389C255.31 69.9579 255.413 70.0579 255.538 70.1388C255.666 70.2174 255.804 70.2837 255.95 70.3376C256.096 70.3893 256.236 70.4319 256.371 70.4656L257.045 70.6409C257.265 70.6948 257.491 70.7678 257.722 70.8599C257.953 70.952 258.168 71.0733 258.366 71.2238C258.563 71.3743 258.723 71.5608 258.844 71.7832C258.968 72.0056 259.029 72.2718 259.029 72.5818C259.029 72.9727 258.928 73.3198 258.726 73.623C258.526 73.9263 258.235 74.1656 257.853 74.3408C257.474 74.516 257.014 74.6036 256.475 74.6036C255.959 74.6036 255.511 74.5216 255.134 74.3576C254.757 74.1936 254.461 73.9611 254.248 73.6601C254.034 73.3568 253.916 72.9974 253.894 72.5818H254.939C254.959 72.8312 255.04 73.039 255.181 73.2052C255.325 73.3692 255.508 73.4916 255.731 73.5725C255.955 73.6511 256.201 73.6904 256.468 73.6904C256.763 73.6904 257.024 73.6444 257.254 73.5523C257.485 73.4579 257.667 73.3276 257.799 73.1614C257.932 72.9929 257.998 72.7963 257.998 72.5717C257.998 72.3673 257.94 72.1999 257.823 72.0696C257.709 71.9393 257.552 71.8315 257.355 71.7461C257.159 71.6607 256.938 71.5855 256.691 71.5203L255.875 71.2979C255.323 71.1474 254.885 70.9262 254.561 70.6341C254.24 70.3421 254.079 69.9557 254.079 69.4749C254.079 69.0773 254.187 68.7302 254.403 68.4337C254.619 68.1372 254.911 67.9069 255.279 67.7429C255.647 67.5767 256.063 67.4936 256.526 67.4936C256.993 67.4936 257.405 67.5756 257.762 67.7396C258.122 67.9035 258.405 68.1293 258.612 68.4169C258.818 68.7022 258.926 69.0301 258.935 69.4008H257.931ZM261.699 74.6036C261.371 74.6036 261.075 74.543 260.809 74.4217C260.544 74.2981 260.334 74.1195 260.179 73.8859C260.027 73.6522 259.95 73.3658 259.95 73.0266C259.95 72.7346 260.006 72.4942 260.119 72.3055C260.231 72.1168 260.383 71.9674 260.574 71.8573C260.765 71.7472 260.978 71.6641 261.214 71.608C261.45 71.5518 261.69 71.5091 261.935 71.4799C262.245 71.444 262.497 71.4148 262.69 71.3923C262.883 71.3676 263.023 71.3283 263.111 71.2744C263.199 71.2204 263.242 71.1328 263.242 71.0115V70.9879C263.242 70.6936 263.159 70.4656 262.993 70.3039C262.829 70.1421 262.584 70.0613 262.258 70.0613C261.919 70.0613 261.652 70.1365 261.456 70.287C261.263 70.4353 261.13 70.6004 261.055 70.7824L260.109 70.5667C260.221 70.2522 260.385 69.9984 260.601 69.8052C260.818 69.6097 261.069 69.4682 261.352 69.3806C261.635 69.2907 261.933 69.2458 262.245 69.2458C262.452 69.2458 262.671 69.2705 262.902 69.3199C263.136 69.3671 263.354 69.4547 263.556 69.5828C263.76 69.7108 263.928 69.8939 264.058 70.132C264.188 70.3679 264.253 70.6746 264.253 71.052V74.489H263.269V73.7814H263.229C263.164 73.9117 263.066 74.0398 262.936 74.1656C262.805 74.2914 262.638 74.3958 262.434 74.4789C262.229 74.5621 261.984 74.6036 261.699 74.6036ZM261.918 73.7949C262.197 73.7949 262.435 73.7398 262.632 73.6298C262.832 73.5197 262.984 73.3759 263.087 73.1985C263.193 73.0187 263.246 72.8267 263.246 72.6222V71.955C263.21 71.991 263.14 72.0247 263.037 72.0561C262.936 72.0853 262.82 72.1112 262.69 72.1336C262.559 72.1538 262.433 72.1729 262.309 72.1909C262.185 72.2066 262.082 72.2201 261.999 72.2314C261.804 72.2561 261.625 72.2976 261.463 72.356C261.304 72.4144 261.176 72.4987 261.079 72.6088C260.985 72.7166 260.938 72.8604 260.938 73.0401C260.938 73.2894 261.03 73.4781 261.214 73.6062C261.398 73.732 261.633 73.7949 261.918 73.7949ZM266.603 67.5879V74.489H265.595V67.5879H266.603ZM270.189 74.5935C269.679 74.5935 269.24 74.4846 268.871 74.2666C268.505 74.0465 268.222 73.7376 268.022 73.34C267.825 72.9401 267.726 72.4717 267.726 71.9348C267.726 71.4047 267.825 70.9374 268.022 70.533C268.222 70.1287 268.501 69.813 268.858 69.5861C269.217 69.3593 269.637 69.2458 270.118 69.2458C270.41 69.2458 270.693 69.2941 270.967 69.3907C271.241 69.4873 271.487 69.6389 271.705 69.8456C271.923 70.0523 272.095 70.3207 272.221 70.651C272.347 70.9789 272.41 71.3777 272.41 71.8472V72.2044H268.295V71.4496H271.422C271.422 71.1845 271.368 70.9497 271.261 70.7453C271.153 70.5386 271.001 70.3758 270.806 70.2567C270.612 70.1376 270.386 70.0781 270.125 70.0781C269.842 70.0781 269.595 70.1478 269.384 70.287C269.175 70.4241 269.013 70.6038 268.898 70.8262C268.786 71.0463 268.73 71.2856 268.73 71.5439V72.1336C268.73 72.4796 268.791 72.7739 268.912 73.0165C269.035 73.2591 269.207 73.4444 269.427 73.5725C269.648 73.6983 269.905 73.7612 270.199 73.7612C270.39 73.7612 270.564 73.7342 270.721 73.6803C270.879 73.6242 271.015 73.541 271.129 73.431C271.244 73.3209 271.331 73.185 271.392 73.0232L272.346 73.1951C272.269 73.4759 272.132 73.7219 271.935 73.933C271.739 74.142 271.493 74.3048 271.197 74.4217C270.902 74.5362 270.566 74.5935 270.189 74.5935Z" fill="white"/>
</g>
<rect x="353.044" y="95.854" width="18.9781" height="18.9781" rx="9.48905" fill="#DEE2ED"/>
<g clip-path="url(#clip3_1249_1648)">
<path d="M361.008 102.293L364.058 105.343L361.008 108.393" stroke="#9EA8C7" stroke-width="1.35558" stroke-linecap="round" stroke-linejoin="round"/>
</g>
<rect x="157.569" y="178.409" width="7.59124" height="7.59124" rx="3.79562" fill="#DEE2ED"/>
<rect x="170.854" y="178.409" width="7.59124" height="7.59124" rx="3.79562" fill="#9EA8C7"/>
<rect x="184.139" y="178.409" width="7.59124" height="7.59124" rx="3.79562" fill="#DEE2ED"/>
<rect x="197.423" y="178.409" width="7.59124" height="7.59124" rx="3.79562" fill="#DEE2ED"/>
<rect x="210.708" y="178.409" width="7.59124" height="7.59124" rx="3.79562" fill="#DEE2ED"/>
<g clip-path="url(#clip4_1249_1648)">
<rect x="25.6716" y="56" width="99.635" height="99.635" rx="3.53295" fill="#F1F3F9"/>
<path d="M85.1759 126.337L73.9602 105.774L82.8206 91.0072L101.663 126.337H85.1759ZM66.3335 100.428L80.4653 126.337H52.2017L66.3335 100.428ZM60.4453 95.7178C57.1933 95.7178 54.557 93.0815 54.557 89.8295C54.557 86.5775 57.1933 83.9413 60.4453 83.9413C63.6973 83.9413 66.3335 86.5775 66.3335 89.8295C66.3335 93.0815 63.6973 95.7178 60.4453 95.7178Z" fill="white"/>
<rect width="31.3869" height="14.7956" transform="translate(25.6716 63.5912)" fill="#CFD3DC"/>
<path d="M35.8871 69.4008C35.8512 69.0818 35.7029 68.8347 35.4423 68.6595C35.1817 68.482 34.8537 68.3933 34.4584 68.3933C34.1753 68.3933 33.9304 68.4382 33.7238 68.5281C33.5171 68.6157 33.3565 68.737 33.2419 68.892C33.1296 69.0447 33.0734 69.2188 33.0734 69.4143C33.0734 69.5783 33.1116 69.7198 33.188 69.8389C33.2666 69.9579 33.3688 70.0579 33.4946 70.1388C33.6227 70.2174 33.7597 70.2837 33.9057 70.3376C34.0518 70.3893 34.1922 70.4319 34.3269 70.4656L35.0009 70.6409C35.221 70.6948 35.4468 70.7678 35.6782 70.8599C35.9096 70.952 36.1241 71.0733 36.3218 71.2238C36.5195 71.3743 36.679 71.5608 36.8003 71.7832C36.9239 72.0056 36.9856 72.2718 36.9856 72.5818C36.9856 72.9727 36.8845 73.3198 36.6824 73.623C36.4824 73.9263 36.1915 74.1656 35.8096 74.3408C35.43 74.516 34.9706 74.6036 34.4314 74.6036C33.9147 74.6036 33.4677 74.5216 33.0903 74.3576C32.7129 74.1936 32.4175 73.9611 32.204 73.6601C31.9906 73.3568 31.8727 72.9974 31.8502 72.5818H32.8948C32.915 72.8312 32.9959 73.039 33.1374 73.2052C33.2812 73.3692 33.4643 73.4916 33.6867 73.5725C33.9114 73.6511 34.1573 73.6904 34.4247 73.6904C34.719 73.6904 34.9807 73.6444 35.2098 73.5523C35.4412 73.4579 35.6232 73.3276 35.7557 73.1614C35.8882 72.9929 35.9545 72.7963 35.9545 72.5717C35.9545 72.3673 35.8961 72.1999 35.7793 72.0696C35.6647 71.9393 35.5086 71.8315 35.3109 71.7461C35.1155 71.6607 34.8942 71.5855 34.6471 71.5203L33.8316 71.2979C33.279 71.1474 32.8409 70.9262 32.5174 70.6341C32.1962 70.3421 32.0356 69.9557 32.0356 69.4749C32.0356 69.0773 32.1434 68.7302 32.359 68.4337C32.5747 68.1372 32.8667 67.9069 33.2352 67.7429C33.6036 67.5767 34.0192 67.4936 34.482 67.4936C34.9492 67.4936 35.3614 67.5756 35.7186 67.7396C36.0781 67.9035 36.3611 68.1293 36.5678 68.4169C36.7745 68.7022 36.8823 69.0301 36.8913 69.4008H35.8871ZM39.6553 74.6036C39.3273 74.6036 39.0308 74.543 38.7657 74.4217C38.5006 74.2981 38.2905 74.1195 38.1355 73.8859C37.9828 73.6522 37.9064 73.3658 37.9064 73.0266C37.9064 72.7346 37.9626 72.4942 38.0749 72.3055C38.1872 72.1168 38.3388 71.9674 38.5298 71.8573C38.7207 71.7472 38.9342 71.6641 39.17 71.608C39.4059 71.5518 39.6463 71.5091 39.8912 71.4799C40.2012 71.444 40.4528 71.4148 40.646 71.3923C40.8392 71.3676 40.9796 71.3283 41.0672 71.2744C41.1548 71.2204 41.1986 71.1328 41.1986 71.0115V70.9879C41.1986 70.6936 41.1155 70.4656 40.9492 70.3039C40.7852 70.1421 40.5404 70.0613 40.2146 70.0613C39.8754 70.0613 39.6081 70.1365 39.4127 70.287C39.2195 70.4353 39.0858 70.6004 39.0117 70.7824L38.0648 70.5667C38.1771 70.2522 38.3411 69.9984 38.5568 69.8052C38.7747 69.6097 39.0251 69.4682 39.3082 69.3806C39.5913 69.2907 39.8889 69.2458 40.2012 69.2458C40.4078 69.2458 40.6269 69.2705 40.8583 69.3199C41.0919 69.3671 41.3098 69.4547 41.512 69.5828C41.7164 69.7108 41.8838 69.8939 42.0141 70.132C42.1444 70.3679 42.2095 70.6746 42.2095 71.052V74.489H41.2256V73.7814H41.1851C41.12 73.9117 41.0222 74.0398 40.892 74.1656C40.7617 74.2914 40.5943 74.3958 40.3899 74.4789C40.1854 74.5621 39.9406 74.6036 39.6553 74.6036ZM39.8743 73.7949C40.1529 73.7949 40.391 73.7398 40.5887 73.6298C40.7886 73.5197 40.9403 73.3759 41.0436 73.1985C41.1492 73.0187 41.202 72.8267 41.202 72.6222V71.955C41.166 71.991 41.0964 72.0247 40.993 72.0561C40.892 72.0853 40.7763 72.1112 40.646 72.1336C40.5157 72.1538 40.3887 72.1729 40.2652 72.1909C40.1416 72.2066 40.0383 72.2201 39.9552 72.2314C39.7597 72.2561 39.5811 72.2976 39.4194 72.356C39.2599 72.4144 39.1318 72.4987 39.0353 72.6088C38.9409 72.7166 38.8937 72.8604 38.8937 73.0401C38.8937 73.2894 38.9858 73.4781 39.17 73.6062C39.3542 73.732 39.589 73.7949 39.8743 73.7949ZM44.559 67.5879V74.489H43.5515V67.5879H44.559ZM48.1452 74.5935C47.6353 74.5935 47.1961 74.4846 46.8277 74.2666C46.4615 74.0465 46.1784 73.7376 45.9785 73.34C45.7808 72.9401 45.682 72.4717 45.682 71.9348C45.682 71.4047 45.7808 70.9374 45.9785 70.533C46.1784 70.1287 46.457 69.813 46.8142 69.5861C47.1736 69.3593 47.5937 69.2458 48.0744 69.2458C48.3665 69.2458 48.6495 69.2941 48.9236 69.3907C49.1977 69.4873 49.4437 69.6389 49.6616 69.8456C49.8795 70.0523 50.0513 70.3207 50.1771 70.651C50.3029 70.9789 50.3658 71.3777 50.3658 71.8472V72.2044H46.2514V71.4496H49.3785C49.3785 71.1845 49.3246 70.9497 49.2168 70.7453C49.1089 70.5386 48.9573 70.3758 48.7619 70.2567C48.5687 70.1376 48.3418 70.0781 48.0812 70.0781C47.7981 70.0781 47.551 70.1478 47.3399 70.287C47.1309 70.4241 46.9692 70.6038 46.8546 70.8262C46.7423 71.0463 46.6861 71.2856 46.6861 71.5439V72.1336C46.6861 72.4796 46.7468 72.7739 46.8681 73.0165C46.9917 73.2591 47.1635 73.4444 47.3837 73.5725C47.6038 73.6983 47.861 73.7612 48.1553 73.7612C48.3463 73.7612 48.5204 73.7342 48.6776 73.6803C48.8349 73.6242 48.9708 73.541 49.0854 73.431C49.1999 73.3209 49.2875 73.185 49.3482 73.0232L50.3018 73.1951C50.2254 73.4759 50.0884 73.7219 49.8907 73.933C49.6953 74.142 49.4493 74.3048 49.1528 74.4217C48.8585 74.5362 48.5226 74.5935 48.1452 74.5935Z" fill="white"/>
</g>
<rect x="19.9781" y="115.781" width="18.9781" height="18.9781" rx="9.48905" transform="rotate(-180 19.9781 115.781)" fill="#DEE2ED"/>
<path d="M12.0142 109.342L8.96411 106.292L12.0142 103.242" stroke="#9EA8C7" stroke-width="1.35558" stroke-linecap="round" stroke-linejoin="round"/>
</g>
<defs>
<clipPath id="clip0_1249_1648">
<rect width="374" height="242" fill="white"/>
</clipPath>
<clipPath id="clip1_1249_1648">
<rect x="136.693" y="56" width="99.635" height="99.635" rx="3.53295" fill="white"/>
</clipPath>
<clipPath id="clip2_1249_1648">
<rect x="247.715" y="56" width="99.635" height="99.635" rx="3.53295" fill="white"/>
</clipPath>
<clipPath id="clip3_1249_1648">
<rect width="12.2002" height="12.2002" fill="white" transform="translate(356.433 99.243)"/>
</clipPath>
<clipPath id="clip4_1249_1648">
<rect x="25.6716" y="56" width="99.635" height="99.635" rx="3.53295" fill="white"/>
</clipPath>
</defs>
</svg>
