<svg width="374" height="242" viewBox="0 0 374 242" fill="none" xmlns="http://www.w3.org/2000/svg">
<g clip-path="url(#clip0_1249_1891)">
<rect x="137.266" y="46" width="100.288" height="149" rx="3.55612" fill="#F1F3F9"/>
<rect x="142.997" y="146.288" width="88.8269" height="42.9808" rx="3.55612" fill="white"/>
<rect x="148.728" y="152.019" width="73.5449" height="3.82051" rx="1.91026" fill="#EBEDF4"/>
<rect x="148.728" y="160.615" width="55.3974" height="3.82051" rx="1.91026" fill="#EBEDF4"/>
<rect x="148.728" y="171.122" width="41.0705" height="12.4167" rx="6.20833" fill="#DEE2ED"/>
<rect x="156.369" y="175.897" width="24.8333" height="2.86538" rx="1.43269" fill="#F7F8FC"/>
<g clip-path="url(#clip1_1249_1891)">
<rect x="142.997" y="51.7308" width="88.8269" height="88.8269" rx="3.55612" fill="white"/>
<path d="M197.161 116.798L185.871 96.1009L194.79 81.2368L213.756 116.798H197.161ZM178.195 90.7197L192.419 116.798H163.97L178.195 90.7197ZM172.268 85.9783C168.994 85.9783 166.341 83.3247 166.341 80.0514C166.341 76.7781 168.994 74.1245 172.268 74.1245C175.541 74.1245 178.195 76.7781 178.195 80.0514C178.195 83.3247 175.541 85.9783 172.268 85.9783Z" fill="#F1F3F9"/>
<rect width="31.4615" height="14.8205" transform="translate(142.997 59.3718)" fill="#CFD3DC"/>
<path d="M153.279 65.1604C153.243 64.8393 153.094 64.5906 152.832 64.4142C152.569 64.2356 152.239 64.1463 151.841 64.1463C151.556 64.1463 151.31 64.1915 151.102 64.282C150.894 64.3701 150.732 64.4923 150.617 64.6483C150.504 64.802 150.447 64.9773 150.447 65.174C150.447 65.3391 150.486 65.4815 150.562 65.6014C150.642 65.7212 150.745 65.8218 150.871 65.9032C151 65.9824 151.138 66.0491 151.285 66.1034C151.432 66.1554 151.573 66.1983 151.709 66.2322L152.387 66.4086C152.609 66.4629 152.836 66.5364 153.069 66.6291C153.302 66.7218 153.518 66.8439 153.717 66.9954C153.916 67.1469 154.076 67.3346 154.198 67.5584C154.323 67.7823 154.385 68.0502 154.385 68.3623C154.385 68.7557 154.283 69.1051 154.08 69.4103C153.879 69.7156 153.586 69.9564 153.201 70.1328C152.819 70.3092 152.357 70.3974 151.814 70.3974C151.294 70.3974 150.844 70.3148 150.464 70.1498C150.084 69.9847 149.787 69.7507 149.572 69.4477C149.357 69.1424 149.239 68.7806 149.216 68.3623H150.267C150.288 68.6133 150.369 68.8224 150.512 68.9898C150.656 69.1548 150.841 69.2781 151.064 69.3595C151.291 69.4386 151.538 69.4782 151.807 69.4782C152.104 69.4782 152.367 69.4318 152.598 69.3391C152.83 69.2442 153.014 69.113 153.147 68.9457C153.28 68.7761 153.347 68.5782 153.347 68.3521C153.347 68.1463 153.288 67.9779 153.171 67.8467C153.055 67.7156 152.898 67.607 152.699 67.5211C152.503 67.4352 152.28 67.3594 152.031 67.2939L151.21 67.07C150.654 66.9185 150.213 66.6958 149.888 66.4018C149.564 66.1079 149.403 65.7189 149.403 65.2351C149.403 64.8348 149.511 64.4855 149.728 64.187C149.945 63.8885 150.239 63.6567 150.61 63.4917C150.981 63.3243 151.399 63.2407 151.865 63.2407C152.335 63.2407 152.75 63.3232 153.11 63.4883C153.472 63.6533 153.756 63.8806 153.964 64.17C154.172 64.4572 154.281 64.7873 154.29 65.1604H153.279ZM157.072 70.3974C156.742 70.3974 156.444 70.3363 156.177 70.2142C155.91 70.0898 155.699 69.9101 155.542 69.6749C155.389 69.4397 155.312 69.1514 155.312 68.81C155.312 68.516 155.368 68.2741 155.481 68.0842C155.595 67.8942 155.747 67.7438 155.939 67.633C156.132 67.5223 156.346 67.4386 156.584 67.3821C156.821 67.3255 157.063 67.2826 157.31 67.2532C157.622 67.217 157.875 67.1876 158.069 67.165C158.264 67.1401 158.405 67.1005 158.493 67.0463C158.582 66.992 158.626 66.9038 158.626 66.7817V66.758C158.626 66.4618 158.542 66.2322 158.375 66.0694C158.21 65.9066 157.963 65.8252 157.635 65.8252C157.294 65.8252 157.025 65.901 156.828 66.0525C156.634 66.2017 156.499 66.3679 156.424 66.5511L155.471 66.334C155.584 66.0174 155.749 65.7619 155.966 65.5674C156.186 65.3707 156.438 65.2283 156.723 65.1401C157.008 65.0496 157.307 65.0044 157.622 65.0044C157.83 65.0044 158.05 65.0293 158.283 65.079C158.518 65.1265 158.738 65.2147 158.941 65.3436C159.147 65.4725 159.315 65.6568 159.446 65.8965C159.578 66.1339 159.643 66.4425 159.643 66.8224V70.282H158.653V69.5698H158.612C158.546 69.7009 158.448 69.8298 158.317 69.9564C158.186 70.0831 158.017 70.1882 157.812 70.2719C157.606 70.3555 157.359 70.3974 157.072 70.3974ZM157.293 69.5833C157.573 69.5833 157.813 69.5279 158.012 69.4171C158.213 69.3063 158.366 69.1616 158.47 68.983C158.576 68.8021 158.629 68.6088 158.629 68.403V67.7314C158.593 67.7676 158.523 67.8015 158.419 67.8332C158.317 67.8626 158.201 67.8886 158.069 67.9112C157.938 67.9315 157.81 67.9507 157.686 67.9688C157.562 67.9847 157.458 67.9982 157.374 68.0095C157.177 68.0344 156.998 68.0762 156.835 68.135C156.674 68.1938 156.545 68.2786 156.448 68.3894C156.353 68.498 156.306 68.6427 156.306 68.8236C156.306 69.0746 156.398 69.2645 156.584 69.3934C156.769 69.52 157.005 69.5833 157.293 69.5833ZM162.008 63.3357V70.282H160.994V63.3357H162.008ZM165.618 70.3872C165.105 70.3872 164.662 70.2775 164.292 70.0582C163.923 69.8366 163.638 69.5257 163.437 69.1254C163.238 68.7229 163.138 68.2515 163.138 67.7111C163.138 67.1774 163.238 66.7071 163.437 66.3001C163.638 65.8931 163.919 65.5754 164.278 65.347C164.64 65.1186 165.063 65.0044 165.547 65.0044C165.841 65.0044 166.125 65.053 166.401 65.1503C166.677 65.2475 166.925 65.4001 167.144 65.6082C167.363 65.8162 167.536 66.0864 167.663 66.4188C167.79 66.7489 167.853 67.1503 167.853 67.6229V67.9824H163.712V67.2226H166.859C166.859 66.9558 166.805 66.7195 166.696 66.5138C166.588 66.3057 166.435 66.1418 166.239 66.0219C166.044 65.9021 165.816 65.8422 165.553 65.8422C165.268 65.8422 165.02 65.9123 164.807 66.0525C164.597 66.1904 164.434 66.3713 164.319 66.5952C164.206 66.8168 164.149 67.0576 164.149 67.3176V67.9112C164.149 68.2594 164.21 68.5556 164.332 68.7998C164.457 69.044 164.63 69.2306 164.851 69.3595C165.073 69.4861 165.332 69.5494 165.628 69.5494C165.82 69.5494 165.995 69.5223 166.154 69.468C166.312 69.4115 166.449 69.3278 166.564 69.217C166.679 69.1062 166.768 68.9694 166.829 68.8066L167.789 68.9796C167.712 69.2622 167.574 69.5098 167.375 69.7224C167.178 69.9327 166.93 70.0966 166.632 70.2142C166.336 70.3295 165.998 70.3872 165.618 70.3872Z" fill="white"/>
</g>
<rect x="245.196" y="46" width="100.288" height="149" rx="3.55612" fill="#F1F3F9"/>
<rect x="250.926" y="146.288" width="88.8269" height="42.9808" rx="3.55612" fill="white"/>
<rect x="256.657" y="152.019" width="73.5449" height="3.82051" rx="1.91026" fill="#EBEDF4"/>
<rect x="256.657" y="160.615" width="55.3974" height="3.82051" rx="1.91026" fill="#EBEDF4"/>
<rect x="256.657" y="171.122" width="41.0705" height="12.4167" rx="6.20833" fill="#DEE2ED"/>
<rect x="264.298" y="175.897" width="24.8333" height="2.86538" rx="1.43269" fill="#F7F8FC"/>
<g clip-path="url(#clip2_1249_1891)">
<rect x="250.926" y="51.7308" width="88.8269" height="88.8269" rx="3.55612" fill="white"/>
<path d="M305.09 116.798L293.801 96.1009L302.719 81.2368L321.685 116.798H305.09ZM286.124 90.7197L300.349 116.798H271.9L286.124 90.7197ZM280.197 85.9783C276.924 85.9783 274.27 83.3247 274.27 80.0514C274.27 76.7781 276.924 74.1245 280.197 74.1245C283.471 74.1245 286.124 76.7781 286.124 80.0514C286.124 83.3247 283.471 85.9783 280.197 85.9783Z" fill="#F1F3F9"/>
<rect width="31.4615" height="14.8205" transform="translate(250.926 59.3718)" fill="#CFD3DC"/>
<path d="M261.209 65.1604C261.173 64.8393 261.023 64.5906 260.761 64.4142C260.499 64.2356 260.169 64.1463 259.771 64.1463C259.486 64.1463 259.239 64.1915 259.031 64.282C258.823 64.3701 258.662 64.4923 258.546 64.6483C258.433 64.802 258.377 64.9773 258.377 65.174C258.377 65.3391 258.415 65.4815 258.492 65.6014C258.571 65.7212 258.674 65.8218 258.801 65.9032C258.93 65.9824 259.067 66.0491 259.214 66.1034C259.361 66.1554 259.503 66.1983 259.638 66.2322L260.317 66.4086C260.538 66.4629 260.766 66.5364 260.999 66.6291C261.231 66.7218 261.447 66.8439 261.646 66.9954C261.845 67.1469 262.006 67.3346 262.128 67.5584C262.252 67.7823 262.315 68.0502 262.315 68.3623C262.315 68.7557 262.213 69.1051 262.009 69.4103C261.808 69.7156 261.515 69.9564 261.131 70.1328C260.749 70.3092 260.286 70.3974 259.744 70.3974C259.223 70.3974 258.774 70.3148 258.394 70.1498C258.014 69.9847 257.716 69.7507 257.502 69.4477C257.287 69.1424 257.168 68.7806 257.145 68.3623H258.197C258.217 68.6133 258.299 68.8224 258.441 68.9898C258.586 69.1548 258.77 69.2781 258.994 69.3595C259.22 69.4386 259.468 69.4782 259.737 69.4782C260.033 69.4782 260.296 69.4318 260.527 69.3391C260.76 69.2442 260.943 69.113 261.077 68.9457C261.21 68.7761 261.277 68.5782 261.277 68.3521C261.277 68.1463 261.218 67.9779 261.1 67.8467C260.985 67.7156 260.828 67.607 260.629 67.5211C260.432 67.4352 260.209 67.3594 259.961 67.2939L259.14 67.07C258.584 66.9185 258.143 66.6958 257.817 66.4018C257.494 66.1079 257.332 65.7189 257.332 65.2351C257.332 64.8348 257.441 64.4855 257.658 64.187C257.875 63.8885 258.169 63.6567 258.539 63.4917C258.91 63.3243 259.329 63.2407 259.794 63.2407C260.265 63.2407 260.68 63.3232 261.039 63.4883C261.401 63.6533 261.686 63.8806 261.894 64.17C262.102 64.4572 262.211 64.7873 262.22 65.1604H261.209ZM265.002 70.3974C264.672 70.3974 264.373 70.3363 264.106 70.2142C263.839 70.0898 263.628 69.9101 263.472 69.6749C263.318 69.4397 263.241 69.1514 263.241 68.81C263.241 68.516 263.298 68.2741 263.411 68.0842C263.524 67.8942 263.677 67.7438 263.869 67.633C264.061 67.5223 264.276 67.4386 264.513 67.3821C264.751 67.3255 264.993 67.2826 265.239 67.2532C265.551 67.217 265.804 67.1876 265.999 67.165C266.193 67.1401 266.335 67.1005 266.423 67.0463C266.511 66.992 266.555 66.9038 266.555 66.7817V66.758C266.555 66.4618 266.471 66.2322 266.304 66.0694C266.139 65.9066 265.893 65.8252 265.565 65.8252C265.223 65.8252 264.954 65.901 264.757 66.0525C264.563 66.2017 264.428 66.3679 264.354 66.5511L263.401 66.334C263.514 66.0174 263.679 65.7619 263.896 65.5674C264.115 65.3707 264.367 65.2283 264.652 65.1401C264.937 65.0496 265.237 65.0044 265.551 65.0044C265.759 65.0044 265.98 65.0293 266.213 65.079C266.448 65.1265 266.667 65.2147 266.871 65.3436C267.076 65.4725 267.245 65.6568 267.376 65.8965C267.507 66.1339 267.573 66.4425 267.573 66.8224V70.282H266.582V69.5698H266.542C266.476 69.7009 266.378 69.8298 266.246 69.9564C266.115 70.0831 265.947 70.1882 265.741 70.2719C265.535 70.3555 265.289 70.3974 265.002 70.3974ZM265.222 69.5833C265.503 69.5833 265.742 69.5279 265.941 69.4171C266.142 69.3063 266.295 69.1616 266.399 68.983C266.505 68.8021 266.559 68.6088 266.559 68.403V67.7314C266.522 67.7676 266.452 67.8015 266.348 67.8332C266.246 67.8626 266.13 67.8886 265.999 67.9112C265.868 67.9315 265.74 67.9507 265.616 67.9688C265.491 67.9847 265.387 67.9982 265.304 68.0095C265.107 68.0344 264.927 68.0762 264.764 68.135C264.604 68.1938 264.475 68.2786 264.378 68.3894C264.283 68.498 264.235 68.6427 264.235 68.8236C264.235 69.0746 264.328 69.2645 264.513 69.3934C264.699 69.52 264.935 69.5833 265.222 69.5833ZM269.938 63.3357V70.282H268.923V63.3357H269.938ZM273.547 70.3872C273.034 70.3872 272.592 70.2775 272.221 70.0582C271.853 69.8366 271.568 69.5257 271.366 69.1254C271.167 68.7229 271.068 68.2515 271.068 67.7111C271.068 67.1774 271.167 66.7071 271.366 66.3001C271.568 65.8931 271.848 65.5754 272.208 65.347C272.569 65.1186 272.992 65.0044 273.476 65.0044C273.77 65.0044 274.055 65.053 274.331 65.1503C274.607 65.2475 274.854 65.4001 275.074 65.6082C275.293 65.8162 275.466 66.0864 275.593 66.4188C275.719 66.7489 275.783 67.1503 275.783 67.6229V67.9824H271.641V67.2226H274.789C274.789 66.9558 274.734 66.7195 274.626 66.5138C274.517 66.3057 274.365 66.1418 274.168 66.0219C273.974 65.9021 273.745 65.8422 273.483 65.8422C273.198 65.8422 272.949 65.9123 272.737 66.0525C272.526 66.1904 272.364 66.3713 272.248 66.5952C272.135 66.8168 272.079 67.0576 272.079 67.3176V67.9112C272.079 68.2594 272.14 68.5556 272.262 68.7998C272.386 69.044 272.559 69.2306 272.781 69.3595C273.002 69.4861 273.261 69.5494 273.557 69.5494C273.75 69.5494 273.925 69.5223 274.083 69.468C274.242 69.4115 274.378 69.3278 274.494 69.217C274.609 69.1062 274.697 68.9694 274.758 68.8066L275.718 68.9796C275.641 69.2622 275.503 69.5098 275.304 69.7224C275.108 69.9327 274.86 70.0966 274.561 70.2142C274.265 70.3295 273.927 70.3872 273.547 70.3872Z" fill="white"/>
</g>
<rect x="29.3365" y="46" width="100.288" height="149" rx="3.55612" fill="#F1F3F9"/>
<rect x="35.0673" y="146.288" width="88.8269" height="42.9808" rx="3.55612" fill="white"/>
<rect x="40.798" y="152.019" width="73.5449" height="3.82051" rx="1.91026" fill="#EBEDF4"/>
<rect x="40.798" y="160.615" width="55.3974" height="3.82051" rx="1.91026" fill="#EBEDF4"/>
<rect x="40.798" y="171.122" width="41.0705" height="12.4167" rx="6.20833" fill="#DEE2ED"/>
<rect x="48.4391" y="175.897" width="24.8333" height="2.86538" rx="1.43269" fill="#F7F8FC"/>
<g clip-path="url(#clip3_1249_1891)">
<rect x="35.0673" y="51.7308" width="88.8269" height="88.8269" rx="3.55612" fill="white"/>
<path d="M89.2311 116.798L77.9419 96.1009L86.8604 81.2368L105.826 116.798H89.2311ZM70.2652 90.7197L84.4896 116.798H56.0407L70.2652 90.7197ZM64.3383 85.9783C61.065 85.9783 58.4114 83.3247 58.4114 80.0514C58.4114 76.7781 61.065 74.1245 64.3383 74.1245C67.6116 74.1245 70.2652 76.7781 70.2652 80.0514C70.2652 83.3247 67.6116 85.9783 64.3383 85.9783Z" fill="#F1F3F9"/>
<rect width="31.4615" height="14.8205" transform="translate(35.0673 59.3718)" fill="#CFD3DC"/>
<path d="M45.3498 65.1604C45.3137 64.8393 45.1644 64.5906 44.9021 64.4142C44.6398 64.2356 44.3097 64.1463 43.9117 64.1463C43.6268 64.1463 43.3803 64.1915 43.1723 64.282C42.9643 64.3701 42.8026 64.4923 42.6873 64.6483C42.5742 64.802 42.5177 64.9773 42.5177 65.174C42.5177 65.3391 42.5561 65.4815 42.633 65.6014C42.7122 65.7212 42.815 65.8218 42.9417 65.9032C43.0706 65.9824 43.2085 66.0491 43.3555 66.1034C43.5024 66.1554 43.6438 66.1983 43.7794 66.2322L44.4578 66.4086C44.6794 66.4629 44.9066 66.5364 45.1395 66.6291C45.3724 66.7218 45.5884 66.8439 45.7874 66.9954C45.9864 67.1469 46.1469 67.3346 46.269 67.5584C46.3934 67.7823 46.4556 68.0502 46.4556 68.3623C46.4556 68.7557 46.3538 69.1051 46.1503 69.4103C45.9491 69.7156 45.6562 69.9564 45.2718 70.1328C44.8897 70.3092 44.4273 70.3974 43.8846 70.3974C43.3645 70.3974 42.9145 70.3148 42.5346 70.1498C42.1548 69.9847 41.8574 69.7507 41.6426 69.4477C41.4278 69.1424 41.3091 68.7806 41.2865 68.3623H42.3379C42.3583 68.6133 42.4397 68.8224 42.5821 68.9898C42.7268 69.1548 42.9111 69.2781 43.135 69.3595C43.3611 69.4386 43.6087 69.4782 43.8778 69.4782C44.174 69.4782 44.4374 69.4318 44.6681 69.3391C44.901 69.2442 45.0841 69.113 45.2176 68.9457C45.351 68.7761 45.4177 68.5782 45.4177 68.3521C45.4177 68.1463 45.3589 67.9779 45.2413 67.8467C45.126 67.7156 44.9688 67.607 44.7698 67.5211C44.5731 67.4352 44.3504 67.3594 44.1017 67.2939L43.2808 67.07C42.7246 66.9185 42.2837 66.6958 41.958 66.4018C41.6347 66.1079 41.473 65.7189 41.473 65.2351C41.473 64.8348 41.5816 64.4855 41.7986 64.187C42.0157 63.8885 42.3097 63.6567 42.6805 63.4917C43.0513 63.3243 43.4697 63.2407 43.9355 63.2407C44.4058 63.2407 44.8207 63.3232 45.1802 63.4883C45.542 63.6533 45.8269 63.8806 46.035 64.17C46.243 64.4572 46.3515 64.7873 46.3606 65.1604H45.3498ZM49.1427 70.3974C48.8126 70.3974 48.5141 70.3363 48.2473 70.2142C47.9805 70.0898 47.769 69.9101 47.613 69.6749C47.4592 69.4397 47.3824 69.1514 47.3824 68.81C47.3824 68.516 47.4389 68.2741 47.552 68.0842C47.665 67.8942 47.8176 67.7438 48.0098 67.633C48.202 67.5223 48.4169 67.4386 48.6543 67.3821C48.8917 67.3255 49.1337 67.2826 49.3801 67.2532C49.6922 67.217 49.9454 67.1876 50.1399 67.165C50.3344 67.1401 50.4757 67.1005 50.5639 67.0463C50.6521 66.992 50.6961 66.9038 50.6961 66.7817V66.758C50.6961 66.4618 50.6125 66.2322 50.4452 66.0694C50.2801 65.9066 50.0336 65.8252 49.7057 65.8252C49.3643 65.8252 49.0952 65.901 48.8985 66.0525C48.704 66.2017 48.5695 66.3679 48.4949 66.5511L47.5418 66.334C47.6548 66.0174 47.8199 65.7619 48.037 65.5674C48.2563 65.3707 48.5084 65.2283 48.7933 65.1401C49.0783 65.0496 49.3779 65.0044 49.6922 65.0044C49.9002 65.0044 50.1207 65.0293 50.3536 65.079C50.5887 65.1265 50.8081 65.2147 51.0116 65.3436C51.2173 65.4725 51.3858 65.6568 51.517 65.8965C51.6481 66.1339 51.7137 66.4425 51.7137 66.8224V70.282H50.7233V69.5698H50.6826C50.617 69.7009 50.5186 69.8298 50.3875 69.9564C50.2563 70.0831 50.0879 70.1882 49.8821 70.2719C49.6763 70.3555 49.4299 70.3974 49.1427 70.3974ZM49.3632 69.5833C49.6436 69.5833 49.8832 69.5279 50.0822 69.4171C50.2835 69.3063 50.4361 69.1616 50.5401 68.983C50.6464 68.8021 50.6995 68.6088 50.6995 68.403V67.7314C50.6634 67.7676 50.5933 67.8015 50.4892 67.8332C50.3875 67.8626 50.271 67.8886 50.1399 67.9112C50.0087 67.9315 49.881 67.9507 49.7566 67.9688C49.6323 67.9847 49.5282 67.9982 49.4446 68.0095C49.2478 68.0344 49.0681 68.0762 48.9053 68.135C48.7447 68.1938 48.6158 68.2786 48.5186 68.3894C48.4236 68.498 48.3762 68.6427 48.3762 68.8236C48.3762 69.0746 48.4689 69.2645 48.6543 69.3934C48.8397 69.52 49.076 69.5833 49.3632 69.5833ZM54.0786 63.3357V70.282H53.0645V63.3357H54.0786ZM57.6883 70.3872C57.175 70.3872 56.733 70.2775 56.3621 70.0582C55.9936 69.8366 55.7086 69.5257 55.5074 69.1254C55.3084 68.7229 55.2089 68.2515 55.2089 67.7111C55.2089 67.1774 55.3084 66.7071 55.5074 66.3001C55.7086 65.8931 55.989 65.5754 56.3486 65.347C56.7104 65.1186 57.1332 65.0044 57.6171 65.0044C57.911 65.0044 58.196 65.053 58.4718 65.1503C58.7477 65.2475 58.9953 65.4001 59.2146 65.6082C59.434 65.8162 59.6069 66.0864 59.7336 66.4188C59.8602 66.7489 59.9235 67.1503 59.9235 67.6229V67.9824H55.7821V67.2226H58.9297C58.9297 66.9558 58.8754 66.7195 58.7669 66.5138C58.6584 66.3057 58.5057 66.1418 58.309 66.0219C58.1146 65.9021 57.8862 65.8422 57.6239 65.8422C57.339 65.8422 57.0902 65.9123 56.8777 66.0525C56.6674 66.1904 56.5046 66.3713 56.3893 66.5952C56.2762 66.8168 56.2197 67.0576 56.2197 67.3176V67.9112C56.2197 68.2594 56.2807 68.5556 56.4028 68.7998C56.5272 69.044 56.7002 69.2306 56.9218 69.3595C57.1434 69.4861 57.4023 69.5494 57.6985 69.5494C57.8907 69.5494 58.0659 69.5223 58.2242 69.468C58.3825 69.4115 58.5193 69.3278 58.6346 69.217C58.75 69.1062 58.8381 68.9694 58.8992 68.8066L59.8591 68.9796C59.7822 69.2622 59.6443 69.5098 59.4453 69.7224C59.2485 69.9327 59.0009 70.0966 58.7025 70.2142C58.4063 70.3295 58.0682 70.3872 57.6883 70.3872Z" fill="white"/>
</g>
<rect x="19.7852" y="122.41" width="19.1026" height="19.1026" rx="9.55128" transform="rotate(-180 19.7852 122.41)" fill="#DEE2ED"/>
<path d="M11.769 115.929L8.69893 112.859L11.769 109.789" stroke="#9EA8C7" stroke-width="1.36447" stroke-linecap="round" stroke-linejoin="round"/>
<rect x="351.215" y="102.353" width="19.1026" height="19.1026" rx="9.55128" fill="#DEE2ED"/>
<g clip-path="url(#clip4_1249_1891)">
<path d="M359.231 108.834L362.301 111.904L359.231 114.974" stroke="#9EA8C7" stroke-width="1.36447" stroke-linecap="round" stroke-linejoin="round"/>
</g>
</g>
<defs>
<clipPath id="clip0_1249_1891">
<rect width="374" height="242" fill="white"/>
</clipPath>
<clipPath id="clip1_1249_1891">
<rect x="142.997" y="51.7308" width="88.8269" height="88.8269" rx="3.55612" fill="white"/>
</clipPath>
<clipPath id="clip2_1249_1891">
<rect x="250.926" y="51.7308" width="88.8269" height="88.8269" rx="3.55612" fill="white"/>
</clipPath>
<clipPath id="clip3_1249_1891">
<rect x="35.0673" y="51.7308" width="88.8269" height="88.8269" rx="3.55612" fill="white"/>
</clipPath>
<clipPath id="clip4_1249_1891">
<rect width="12.2802" height="12.2802" fill="white" transform="translate(354.626 105.764)"/>
</clipPath>
</defs>
</svg>
