<svg width="374" height="242" viewBox="0 0 374 242" fill="none" xmlns="http://www.w3.org/2000/svg">
<g clip-path="url(#clip0_1249_1835)">
<rect x="32.9968" y="77.2821" width="87.4359" height="87.4359" rx="43.7179" fill="#F1F3F9"/>
<path d="M86.3609 141.989L74.6171 120.458L83.8947 104.995L103.624 141.989H86.3609ZM66.6313 114.86L81.4285 141.989H51.834L66.6313 114.86ZM60.4657 109.928C57.0606 109.928 54.3002 107.167 54.3002 103.762C54.3002 100.357 57.0606 97.5968 60.4657 97.5968C63.8708 97.5968 66.6313 100.357 66.6313 103.762C66.6313 107.167 63.8708 109.928 60.4657 109.928Z" fill="white"/>
<rect x="21.0737" y="130.936" width="19.8718" height="19.8718" rx="9.9359" transform="rotate(-180 21.0737 130.936)" fill="#DEE2ED"/>
<path d="M12.7346 124.194L9.54097 121L12.7347 117.806" stroke="#9EA8C7" stroke-width="1.41941" stroke-linecap="round" stroke-linejoin="round"/>
<rect x="134.343" y="68.3397" width="104.327" height="104.327" rx="52.1635" fill="#F1F3F9"/>
<path d="M196.649 141.989L184.906 120.458L194.183 104.995L213.913 141.989H196.649ZM176.92 114.86L191.717 141.989H162.122L176.92 114.86ZM170.754 109.928C167.349 109.928 164.589 107.167 164.589 103.762C164.589 100.357 167.349 97.5968 170.754 97.5968C174.159 97.5968 176.92 100.357 176.92 103.762C176.92 107.167 174.159 109.928 170.754 109.928Z" fill="white"/>
<rect x="252.58" y="76.2885" width="87.4359" height="87.4359" rx="43.7179" fill="#F1F3F9"/>
<path d="M305.944 140.995L294.2 119.465L303.478 104.002L323.208 140.995H305.944ZM286.215 113.867L301.012 140.995H271.417L286.215 113.867ZM280.049 108.934C276.644 108.934 273.884 106.174 273.884 102.769C273.884 99.3636 276.644 96.6032 280.049 96.6032C283.454 96.6032 286.215 99.3636 286.215 102.769C286.215 106.174 283.454 108.934 280.049 108.934Z" fill="white"/>
<rect x="353.926" y="110.071" width="19.8718" height="19.8718" rx="9.9359" fill="#DEE2ED"/>
<g clip-path="url(#clip1_1249_1835)">
<path d="M362.265 116.813L365.459 120.006L362.265 123.2" stroke="#9EA8C7" stroke-width="1.41941" stroke-linecap="round" stroke-linejoin="round"/>
</g>
<rect x="143.285" y="43.5" width="85.4487" height="4.96795" rx="2.48397" fill="#EBEDF4"/>
<rect x="154.215" y="54.4295" width="64.5833" height="4.96795" rx="2.48397" fill="#EBEDF4"/>
<rect x="162.163" y="183.596" width="47.6923" height="14.9038" rx="7.45192" fill="#DEE2ED"/>
<rect x="173.093" y="189.558" width="25.8333" height="2.98077" rx="1.49038" fill="#F7F8FC"/>
</g>
<defs>
<clipPath id="clip0_1249_1835">
<rect width="374" height="242" fill="white"/>
</clipPath>
<clipPath id="clip1_1249_1835">
<rect width="12.7747" height="12.7747" fill="white" transform="translate(357.475 113.619)"/>
</clipPath>
</defs>
</svg>
