<svg
	xmlns="http://www.w3.org/2000/svg"
	width="60"
	height="56"
	fill="none"
	viewBox="0 0 60 56"
>
	<path
		fill="#6C3BFF"
		d="M53.75 55.5H6.25A6.259 6.259 0 010 49.25V6.75A6.259 6.259 0 016.25.5h47.5A6.259 6.259 0 0160 6.75v42.5a6.259 6.259 0 01-6.25 6.25zM6.25 3A3.755 3.755 0 002.5 6.75v42.5A3.755 3.755 0 006.25 53h47.5a3.755 3.755 0 003.75-3.75V6.75A3.755 3.755 0 0053.75 3H6.25z"
	></path>
	<path
		fill="#6C3BFF"
		d="M58.75 18H1.25a1.25 1.25 0 010-2.5h57.5a1.25 1.25 0 010 2.5zM58.75 30.5H1.25a1.25 1.25 0 010-2.5h57.5a1.25 1.25 0 010 2.5zM58.75 43H1.25a1.25 1.25 0 010-2.5h57.5a1.25 1.25 0 010 2.5z"
	></path>
	<path
		fill="#6C3BFF"
		d="M16.25 55.5c-.69 0-1.25-.56-1.25-1.25v-37.5a1.25 1.25 0 012.5 0v37.5c0 .69-.56 1.25-1.25 1.25zM30 55.5c-.69 0-1.25-.56-1.25-1.25v-37.5a1.25 1.25 0 012.5 0v37.5c0 .69-.56 1.25-1.25 1.25zM43.75 55.5c-.69 0-1.25-.56-1.25-1.25v-37.5a1.25 1.25 0 012.5 0v37.5c0 .69-.56 1.25-1.25 1.25z"
	></path>
</svg>
