<?xml version="1.0" encoding="UTF-8"?> <svg xmlns="http://www.w3.org/2000/svg" xmlns:xlink="http://www.w3.org/1999/xlink" fill="#000000" width="52" height="52" version="1.1" id="lni_lni-air-flow" x="0px" y="0px" viewBox="0 0 64 64" style="enable-background:new 0 0 64 64;" xml:space="preserve"> <g> <path d="M61.9,52.4L56.3,49c-3.1-1.9-6.9-1.9-10,0l-1.5,0.9c-2,1.2-4.4,1.2-6.4,0L37,49c-3.1-1.9-6.9-1.9-10,0l-1.5,0.9 c-2,1.2-4.4,1.2-6.4,0L17.7,49c-3.1-1.9-6.9-1.9-10,0l-5.6,3.4C1.3,52.9,1,54,1.5,54.8c0.3,0.5,0.9,0.8,1.5,0.8 c0.3,0,0.6-0.1,0.9-0.3L9.5,52c2-1.2,4.4-1.2,6.4,0l1.5,0.9c3.1,1.9,6.9,1.9,10,0l1.5-0.9c2-1.2,4.4-1.2,6.4,0l1.5,0.9 c3.1,1.9,6.9,1.9,10,0l1.5-0.9c2-1.2,4.4-1.2,6.4,0l5.6,3.4c0.8,0.5,1.9,0.2,2.4-0.6C63,54,62.7,52.9,61.9,52.4z"></path> <path d="M61.9,32.8l-5.6-3.4c-3.1-1.9-6.9-1.9-10,0l-1.5,0.9c-2,1.2-4.4,1.2-6.4,0L37,29.4c-3.1-1.9-6.9-1.9-10,0l-1.5,0.9 c-2,1.2-4.4,1.2-6.4,0l-1.5-0.9c-3.1-1.9-6.9-1.9-10,0l-5.6,3.4c-0.8,0.5-1.1,1.6-0.6,2.4C2,36,3.1,36.3,3.9,35.8l5.6-3.4 c2-1.2,4.4-1.2,6.4,0l1.5,0.9c3.1,1.9,6.9,1.9,10,0l1.5-0.9c2-1.2,4.4-1.2,6.4,0l1.5,0.9c3.1,1.9,6.9,1.9,10,0l1.5-0.9 c2-1.2,4.4-1.2,6.4,0l5.6,3.4c0.3,0.2,0.6,0.3,0.9,0.3c0.6,0,1.2-0.3,1.5-0.8C63,34.4,62.7,33.3,61.9,32.8z"></path> <path d="M3.9,16.1l5.6-3.4c2-1.2,4.4-1.2,6.4,0l1.5,0.9c3.1,1.9,6.9,1.9,10,0l1.5-0.9c2-1.2,4.4-1.2,6.4,0l1.5,0.9 c3.1,1.9,6.9,1.9,10,0l1.5-0.9c2-1.2,4.4-1.2,6.4,0l5.6,3.4c0.3,0.2,0.6,0.3,0.9,0.3c0.6,0,1.2-0.3,1.5-0.8 c0.5-0.8,0.2-1.9-0.6-2.4l-5.6-3.4c-3.1-1.9-6.9-1.9-10,0l-1.5,0.9c-2,1.2-4.4,1.2-6.4,0L37,9.7c-3.1-1.9-6.9-1.9-10,0l-1.5,0.9 c-2,1.2-4.4,1.2-6.4,0l-1.5-0.9c-3.1-1.9-6.9-1.9-10,0l-5.6,3.4c-0.8,0.5-1.1,1.6-0.6,2.4S3.1,16.6,3.9,16.1z"></path> </g> </svg> 