<?xml version="1.0" encoding="UTF-8"?> <svg xmlns="http://www.w3.org/2000/svg" xmlns:xlink="http://www.w3.org/1999/xlink" fill="#000000" width="52" height="52" version="1.1" id="lni_lni-washing-machine" x="0px" y="0px" viewBox="0 0 64 64" style="enable-background:new 0 0 64 64;" xml:space="preserve"> <g> <path d="M54.9,1.3H9.1C6.4,1.3,4.3,3.4,4.3,6v52c0,2.6,2.1,4.8,4.8,4.8h45.9c2.6,0,4.8-2.1,4.8-4.8V6C59.7,3.4,57.6,1.3,54.9,1.3z M9.1,4.8h45.9c0.7,0,1.3,0.6,1.3,1.3v11.4H7.8V6C7.8,5.3,8.4,4.8,9.1,4.8z M54.9,59.3H9.1c-0.7,0-1.3-0.6-1.3-1.3V20.9h48.4V58 C56.2,58.7,55.6,59.3,54.9,59.3z"></path> <path d="M32,25c-8,0-14.5,6.5-14.5,14.5c0,8,6.5,14.5,14.5,14.5c8,0,14.5-6.5,14.5-14.5C46.5,31.5,40,25,32,25z M32,50.6 c-6.1,0-11-4.9-11-11s4.9-11,11-11c6.1,0,11,4.9,11,11S38.1,50.6,32,50.6z"></path> <path d="M47.5,13.9c1.5,0,2.7-1.2,2.7-2.7s-1.2-2.7-2.7-2.7c-1.5,0-2.7,1.2-2.7,2.7S46,13.9,47.5,13.9z"></path> <path d="M32,33.3c-3.5,0-6.3,2.8-6.3,6.3s2.8,6.3,6.3,6.3s6.3-2.8,6.3-6.3S35.5,33.3,32,33.3z M32,42.3c-1.5,0-2.8-1.2-2.8-2.8 s1.2-2.8,2.8-2.8c1.5,0,2.8,1.2,2.8,2.8S33.5,42.3,32,42.3z"></path> </g> </svg> 