<svg width="24" height="24" viewBox="0 0 24 24" fill="none" xmlns="http://www.w3.org/2000/svg">
<path d="M13.9141 7.5L14.0146 7.50977C14.2425 7.55638 14.4141 7.75837 14.4141 8C14.4141 8.24163 14.2425 8.44362 14.0146 8.49023L13.9141 8.5H5C4.72386 8.5 4.5 8.27614 4.5 8C4.5 7.72386 4.72386 7.5 5 7.5H13.9141Z" fill="#6C3BFF"/>
<path d="M14 11.2609C14.2761 11.2609 14.5 11.4847 14.5 11.7609C14.5 12.037 14.2761 12.2609 14 12.2609H5C4.72386 12.2609 4.5 12.037 4.5 11.7609C4.5 11.4847 4.72386 11.2609 5 11.2609H14Z" fill="#6C3BFF"/>
<path d="M19 15.5L19.1006 15.5098C19.3286 15.5563 19.5 15.7583 19.5 16C19.5 16.2761 19.2761 16.5 19 16.5H5C4.72386 16.5 4.5 16.2761 4.5 16C4.5 15.7239 4.72386 15.5 5 15.5H19Z" fill="#6C3BFF"/>
<path d="M19.4376 10.8099C19.5328 10.7189 19.5862 10.5957 19.5862 10.4674C19.5862 10.3391 19.5328 10.216 19.4376 10.125L17.3947 8.18204C17.297 8.10247 17.1713 8.06089 17.0427 8.06561C16.9142 8.07033 16.7922 8.12101 16.7013 8.20751C16.6189 8.29045 16.6207 8.42612 16.6189 8.46968C16.6139 8.59193 16.6577 8.71146 16.7413 8.80438L18.6379 10.4674L16.7413 12.2004C16.6577 12.2933 16.6139 12.4128 16.6189 12.5351C16.6226 12.6257 16.638 12.6671 16.7013 12.7273C16.7922 12.8138 16.9142 12.8645 17.0427 12.8692C17.1713 12.874 17.297 12.8324 17.3947 12.7528L19.4376 10.8099Z" fill="#6C3BFF"/>
<path d="M21 20.2998V21H3V20.2998H21ZM22.2998 19V5C22.2998 4.28203 21.718 3.7002 21 3.7002H3C2.28203 3.7002 1.7002 4.28203 1.7002 5V19C1.7002 19.718 2.28203 20.2998 3 20.2998V21L2.7959 20.9893C1.85435 20.8938 1.1062 20.1457 1.01074 19.2041L1 19V5C1 3.89543 1.89543 3 3 3H21C22.1046 3 23 3.89543 23 5V19C23 20.0357 22.2128 20.887 21.2041 20.9893L21 21V20.2998C21.718 20.2998 22.2998 19.718 22.2998 19Z" fill="#6C3BFF"/>
</svg>
