<svg
	xmlns="http://www.w3.org/2000/svg"
	width="47"
	height="47"
	fill="none"
	viewBox="0 0 47 47"
>
	<path
		fill="#6C3BFF"
		fillRule="evenodd"
		d="M3.648.193A2.789 2.789 0 00.859 2.98v40.546a2.789 2.789 0 002.789 2.789h40.546a2.789 2.789 0 002.789-2.789V2.981a2.789 2.789 0 00-2.79-2.788H3.649zM2.859 2.98c0-.435.353-.788.789-.788h11.838v42.123H3.648a.789.789 0 01-.789-.789V2.981zm14.627 41.335h13.028V2.193H17.486v42.123zM32.514 2.193v42.123h11.68a.789.789 0 00.789-.789V2.981a.789.789 0 00-.79-.788H32.515z"
		clipRule="evenodd"
	></path>
</svg>
