<svg
	xmlns="http://www.w3.org/2000/svg"
	width="60"
	height="35"
	fill="none"
	viewBox="0 0 60 35"
>
	<path
		fill="#6C3BFF"
		d="M49.844 0h-7.227a.66.66 0 00-.663.655.66.66 0 00.663.656h7.227c.673 0 1.221.541 1.221 1.206v24.988c0 .665-.547 1.206-1.221 1.206H33.63c-.52 0-1.003.276-1.262.72l-2.192 3.749a.169.169 0 01-.153.087.169.169 0 01-.152-.087l-2.192-3.75a1.465 1.465 0 00-1.262-.719H15.644a.66.66 0 00-.664.656.66.66 0 00.664.655h10.773a.13.13 0 01.112.064l2.192 3.75c.272.464.759.742 1.302.742.544 0 1.03-.278 1.302-.743l2.192-3.749a.13.13 0 01.113-.064h16.214c1.405 0 2.549-1.13 2.549-2.517V2.517C52.393 1.129 51.249 0 49.844 0zM12.546 28.711H9.627a1.215 1.215 0 01-1.22-1.206V2.517c0-.665.547-1.206 1.22-1.206H39.52a.66.66 0 00.664-.656A.66.66 0 0039.52 0H9.627C8.222 0 7.078 1.13 7.078 2.517v24.988c0 1.388 1.144 2.517 2.55 2.517h2.918a.66.66 0 00.664-.655.66.66 0 00-.664-.656z"
	></path>
	<path
		fill="#6C3BFF"
		d="M11.574 17.93a.66.66 0 00.664.656h24.711a.66.66 0 00.664-.655.66.66 0 00-.664-.656H12.238a.66.66 0 00-.664.656zM47.234 17.275h-7.272a.66.66 0 00-.663.656.66.66 0 00.663.655h7.272a.66.66 0 00.664-.655.66.66 0 00-.664-.656zM40.186 23.648H18.988a.66.66 0 00-.663.656.66.66 0 00.663.655h21.198a.66.66 0 00.664-.655.66.66 0 00-.664-.656zM47.234 20.461H12.238a.66.66 0 00-.664.656.66.66 0 00.664.655h34.996a.66.66 0 00.663-.655.66.66 0 00-.663-.656zM35.868 6.853a1.283 1.283 0 00-.867-.83l-2.647-.761-1.55-2.251c-.241-.35-.64-.558-1.068-.558-.428 0-.827.209-1.068.558l-1.55 2.25-2.648.762c-.41.118-.735.428-.867.83a1.26 1.26 0 00.208 1.175l1.688 2.152-.085 2.721c-.013.423.186.823.532 1.071.346.248.793.312 1.195.169l2.595-.921 2.594.92a1.306 1.306 0 001.196-.168c.346-.248.545-.649.532-1.07l-.086-2.722 1.69-2.152c.261-.334.339-.773.206-1.175zm-2.953 2.534a1.268 1.268 0 00-.27.82l.084 2.682-2.557-.907a1.31 1.31 0 00-.873 0l-2.556.907.083-2.681a1.268 1.268 0 00-.27-.82l-1.663-2.121 2.608-.75c.287-.083.538-.263.706-.507l1.529-2.218 1.528 2.218c.168.244.42.424.707.507l2.608.75-1.664 2.12zM22.25 8.912a1.086 1.086 0 00-.734-.703l-1.737-.5-1.018-1.476a1.096 1.096 0 00-.903-.472c-.362 0-.7.176-.904.472L15.938 7.71l-1.737.5c-.348.1-.622.362-.734.702-.112.34-.046.711.176.994l1.108 1.412-.056 1.786c-.011.357.157.696.45.906a1.1 1.1 0 001.011.142l1.703-.604 1.702.604c.34.121.719.068 1.012-.142.293-.21.46-.549.45-.906l-.056-1.786 1.108-1.412c.222-.283.288-.654.176-.994zm-2.385 1.67a1.072 1.072 0 00-.228.693l.048 1.528-1.457-.517a1.109 1.109 0 00-.74 0l-1.456.517.047-1.528a1.072 1.072 0 00-.228-.694l-.948-1.208 1.486-.428c.243-.07.456-.222.598-.429l.871-1.264.871 1.264c.143.207.355.36.598.43l1.486.426-.948 1.21zM37.955 8.21c-.348.1-.622.362-.734.702-.112.34-.046.711.176.994l1.108 1.412-.056 1.786c-.011.357.157.696.45.906a1.1 1.1 0 001.011.142l1.703-.604 1.702.604c.34.121.719.068 1.012-.142.293-.21.46-.549.45-.906l-.056-1.786 1.108-1.412c.221-.283.287-.654.175-.994a1.085 1.085 0 00-.734-.703l-1.737-.5-1.017-1.476a1.096 1.096 0 00-.904-.472c-.361 0-.7.176-.903.472L39.691 7.71l-1.736.5zm2.787.306l.87-1.264.872 1.264c.142.207.355.36.598.43l1.486.427-.948 1.208a1.073 1.073 0 00-.229.694l.048 1.528-1.457-.517a1.109 1.109 0 00-.739 0l-1.457.517.048-1.528a1.073 1.073 0 00-.228-.694l-.949-1.208 1.487-.428c.243-.07.455-.222.598-.429zM56.353 18.823c-.259 0-.453-.064-.647-.256a.919.919 0 010-1.343l1.553-1.598-1.489-2.173c-.323-.448-.194-1.023.26-1.343.452-.32 1.035-.191 1.359.256l2.33 3.452-2.654 2.749c-.194.128-.453.256-.712.256zM3.647 18.14c-.259 0-.518-.127-.712-.319L.281 15.072l2.33-3.452c.324-.447.907-.575 1.36-.255.453.32.583.895.259 1.342l-1.49 2.174 1.62 1.598a.919.919 0 010 1.342c-.26.192-.454.32-.713.32z"
	></path>
</svg>
