<svg width="32" height="32" viewBox="0 0 32 32" fill="none" xmlns="http://www.w3.org/2000/svg">
	<path fill-rule="evenodd" clip-rule="evenodd"
		d="M1.59998 10.1C1.58157 10.1 1.56665 10.1149 1.56665 10.1333V26.6667C1.56665 26.6851 1.58157 26.7 1.59998 26.7H25.6C25.6184 26.7 25.6333 26.6851 25.6333 26.6667V10.1333C25.6333 10.1149 25.6184 10.1 25.6 10.1H1.59998ZM0.56665 10.1333C0.56665 9.56265 1.02929 9.10001 1.59998 9.10001H25.6C26.1707 9.10001 26.6333 9.56265 26.6333 10.1333V26.6667C26.6333 27.2374 26.1707 27.7 25.6 27.7H1.59998C1.02929 27.7 0.56665 27.2374 0.56665 26.6667V10.1333Z"
		fill="#6C3BFF" />
	<path fill-rule="evenodd" clip-rule="evenodd"
		d="M2.16669 7.46666C2.16669 7.19052 2.39054 6.96666 2.66669 6.96666H26.6667C27.8265 6.96666 28.7667 7.90684 28.7667 9.06666V26.1333C28.7667 26.4095 28.5428 26.6333 28.2667 26.6333C27.9905 26.6333 27.7667 26.4095 27.7667 26.1333V9.06666C27.7667 8.45912 27.2742 7.96666 26.6667 7.96666H2.66669C2.39054 7.96666 2.16669 7.7428 2.16669 7.46666Z"
		fill="#6C3BFF" />
	<path fill-rule="evenodd" clip-rule="evenodd"
		d="M3.76666 5.33333C3.76666 5.05719 3.99052 4.83333 4.26666 4.83333H27.2C29.2434 4.83333 30.9 6.48988 30.9 8.53333V24.5333C30.9 24.8095 30.6761 25.0333 30.4 25.0333C30.1239 25.0333 29.9 24.8095 29.9 24.5333V8.53333C29.9 7.04216 28.6912 5.83333 27.2 5.83333H4.26666C3.99052 5.83333 3.76666 5.60947 3.76666 5.33333Z"
		fill="#6C3BFF" />
</svg>
