<?xml version="1.0" encoding="UTF-8"?> <svg xmlns="http://www.w3.org/2000/svg" xmlns:xlink="http://www.w3.org/1999/xlink" fill="#000000" width="52" height="52" version="1.1" id="lni_lni-wifi-alt-2" x="0px" y="0px" viewBox="0 0 64 64" style="enable-background:new 0 0 64 64;" xml:space="preserve"> <g> <path d="M59.2,4c0-1-0.8-1.8-1.8-1.8c-30.3,0-55,24.7-55,55c0,1,0.8,1.8,1.8,1.8S6,58.2,6,57.3C6,28.9,29.1,5.8,57.4,5.8 C58.4,5.8,59.2,5,59.2,4z"></path> <path d="M59.2,26.5c0-1-0.8-1.8-1.8-1.8c-18,0-32.6,14.6-32.6,32.6c0,1,0.8,1.8,1.8,1.8s1.8-0.8,1.8-1.8c0-16,13-29.1,29.1-29.1 C58.4,28.2,59.2,27.4,59.2,26.5z"></path> <path d="M53.6,45.8c-4.4,0-8,3.6-8,8c0,4.4,3.6,8,8,8s8-3.6,8-8C61.5,49.4,58,45.8,53.6,45.8z M53.6,58.2c-2.5,0-4.5-2-4.5-4.5 s2-4.5,4.5-4.5s4.5,2,4.5,4.5S56,58.2,53.6,58.2z"></path> </g> </svg> 