<?xml version="1.0" encoding="UTF-8"?> <svg xmlns="http://www.w3.org/2000/svg" xmlns:xlink="http://www.w3.org/1999/xlink" fill="#000000" width="52" height="52" version="1.1" id="lni_lni-cat" x="0px" y="0px" viewBox="0 0 64 64" style="enable-background:new 0 0 64 64;" xml:space="preserve"> <path d="M54.4,12.5c0.1-0.4,0-0.9-0.3-1.2L53,9.7l-1.2-7c-0.1-0.6-0.5-1.1-1-1.3c-0.5-0.2-1.2-0.2-1.7,0.1l-6,4h-0.5l-6-4 c-0.5-0.3-1.1-0.4-1.7-0.1c-0.5,0.2-0.9,0.7-1,1.3l-1.2,7l-1.1,1.6c-0.2,0.4-0.4,0.8-0.3,1.2c0.3,2.2,1.5,5.6,4.1,7.9 c-0.9,2.1-2.9,3.9-5.2,5.7l-3.3,2.7c-2.1,1.7-4.4,3.6-6.1,5.9c-1.4,1.8-2.9,4.5-3.1,7.7c-4.5,0.8-8,4.8-8,9.5 c0,6,4.9,10.9,10.9,10.9h15c1,0,1.8-0.8,1.8-1.8s-0.8-1.8-1.8-1.8h-15c-4.1,0-7.4-3.3-7.4-7.4c0-2.9,2.1-5.4,4.8-6 c0.6,2.3,1.9,4.5,3.8,6.7l0.3,0.3c1,1.2,2.4,2.8,4.4,3c0.1,0,0.1,0,0.2,0h23.9c1.2,0,2.3-0.7,2.9-1.7c0.6-1.1,0.5-2.3-0.1-3.3 c-0.5-0.8-1.1-1.4-1.9-1.9c-0.5-0.3-1.1-0.6-1.6-0.8c-0.7-0.3-1.4-0.6-1.6-1c-0.1-0.2-0.1-0.5-0.1-0.6c-0.1-1.9,0-3.8,0.3-5.7 c0.1-0.9,0.3-1.8,0.6-2.5c0.2-0.4,0.4-0.8,0.7-1.2L50,37c1.6-2.6,2.4-5,2.5-7.4c0.1-3.3-1.4-6.3-2.6-8.8 C52.7,18.4,54,14.8,54.4,12.5z M49,29.5c0,1.7-0.7,3.5-2,5.6l-0.2,0.3c-0.3,0.5-0.6,1-0.9,1.6c-0.5,1.1-0.7,2.3-0.9,3.4 c-0.3,2.1-0.4,4.2-0.4,6.3c0,0.5,0.1,1.2,0.4,1.8c0.7,1.6,2.2,2.3,3.4,2.8c0.4,0.2,0.8,0.4,1.2,0.6c0.2,0.1,0.4,0.3,0.5,0.4h-8.7 c-0.6-2.2-2.2-4-4.4-4.8c1.2-1.3,1.9-2.9,1.9-4.8c0-4.4-3.6-7.9-7.9-7.9c-1,0-1.8,0.8-1.8,1.8s0.8,1.8,1.8,1.8c2.4,0,4.4,2,4.4,4.4 c0,2.3-1.7,3.2-2.8,3.5c-0.9,0.3-1.6,1.1-1.5,2.1c0,1,0.7,1.8,1.7,2l1.2,0.2c0.3,0.1,0.7,0.1,1,0.1l0.1,0c1.1,0.1,2,0.7,2.6,1.6 H26.8c-0.6-0.1-1.5-1.1-2.1-1.8l-0.3-0.4c-1.5-1.7-3.3-4.3-3.3-7.1c-0.1-2.6,1.3-4.9,2.4-6.3c1.5-2,3.6-3.7,5.6-5.3l3.3-2.7 c2-1.6,4.5-3.7,5.9-6.6c1.2,0.5,2.5,0.7,4,0.7h1.1c1.3,0,2.4-0.2,3.4-0.5C47.9,24.6,49,27.1,49,29.5z M43.3,19.5h-1.1 c-5.4,0-7-5-7.4-6.8l0.9-1.3c0.1-0.2,0.2-0.4,0.3-0.7l0.8-4.7l4.2,2.8C41.4,8.9,41.7,9,42,9h1.5c0.3,0,0.7-0.1,1-0.3l4.2-2.8 l0.8,4.7c0,0.2,0.1,0.5,0.3,0.7l0.9,1.3C50.4,14.4,48.7,19.5,43.3,19.5z"></path> </svg> 